<svg width="1243" height="254" viewBox="0 0 1243 254" fill="none" xmlns="http://www.w3.org/2000/svg">
<path d="M43.1396 28.0002C38.7807 28.012 34.072 28.5692 29.9265 30.0719C5.44274 38.9467 9.44677 66.6501 12.4148 78.8277C13.0982 81.6317 14.7238 86.2097 17.1055 91.8952C12.1924 102.387 9.64159 113.829 9.63307 125.414C9.64169 135.63 11.6274 145.749 15.4808 155.21C14.1444 158.499 12.8111 161.954 11.4175 165.666C1.94656 190.89 4.7405 216.436 21.0071 224.396C37.2737 232.357 66.6814 205.816 66.6814 205.816C66.6814 205.816 36.7724 224.53 24.3531 211.32C19.3374 205.985 21.2123 191.907 25.7593 177.23L25.6879 177.152C26.1 175.934 26.5256 174.698 26.97 173.44C33.9114 153.786 43.4442 137.48 54.0449 123.994C36.989 97.0073 31.7285 73.7232 31.1842 71.1569C31.1787 71.1624 31.1733 71.1679 31.1678 71.1734C26.7213 49.1282 31.8999 37.594 42.2198 33.187C57.3783 26.7136 80.0594 44.224 80.0594 44.224C80.0594 44.224 70.2411 36.1397 66.6546 34.2494C62.8177 32.2273 57.0313 29.6485 52.2466 28.7753C49.709 28.3122 46.5299 27.9911 43.1396 28.0002ZM153.224 42.3012C145.444 42.3708 138.038 44.2281 133.179 45.7501C130.148 46.6997 125.055 48.9182 118.749 52.1207C109.244 48.2376 99.0753 46.2401 88.8083 46.2394C68.4958 46.2547 48.9662 54.0762 34.2585 68.0862C38.2282 88.9111 46.069 106.783 55.6944 121.921C91.456 77.8539 138.156 65.1052 139.634 64.7107C139.616 64.6947 139.598 64.6786 139.58 64.6626C162.855 57.7944 175.396 62.1682 180.646 72.5526C188.083 87.2624 172.069 111.025 172.069 111.025C172.069 111.025 179.504 100.706 181.159 97.0054C182.93 93.0463 185.13 87.105 185.693 82.2739C186.376 76.4175 186.103 67.2664 182.962 60.084C176.767 45.9166 164.594 42.1994 153.224 42.3012ZM142.78 67.5255C102.905 77.79 75.5139 101.805 57.5527 124.776C86.3901 168.106 129.409 188.093 134.196 190.221C144.62 182.928 153.133 173.23 159.015 161.949C164.896 150.668 167.973 138.136 167.983 125.414C167.978 114.552 165.738 103.808 161.402 93.8489C157.066 83.89 150.727 74.9298 142.78 67.5255ZM55.9192 126.896C37.5853 151.04 29.7049 173.29 28.5617 176.695C35.9859 185.428 45.218 192.446 55.6199 197.262C66.0218 202.078 77.3455 204.579 88.8083 204.59C96.1274 204.582 103.41 203.56 110.448 201.552C114.704 203.697 119.232 205.806 124.236 208.063C148.797 219.139 174.47 217.997 183.463 202.277C192.455 186.557 167.863 155.501 167.863 155.501C167.863 155.501 184.611 186.553 170.629 198.096C164.26 203.353 147.357 199.147 131.191 192.27C131.213 192.255 131.235 192.24 131.256 192.225C94.7209 175.061 71.0316 149.876 55.9192 126.896Z" fill="#2A7FFF"/>
<path d="M254.64 195V69H308.28C315.48 69 322.08 70.8 328.08 74.4C334.2 77.88 339.06 82.68 342.66 88.8C346.26 94.8 348.06 101.58 348.06 109.14C348.06 115.98 346.26 122.34 342.66 128.22C339.06 134.1 334.26 138.84 328.26 142.44C322.26 145.92 315.6 147.66 308.28 147.66H274.08V195H254.64ZM329.52 195L297.48 138.12L317.46 133.62L353.1 195.18L329.52 195ZM274.08 128.94H310.08C313.56 128.94 316.68 128.1 319.44 126.42C322.2 124.62 324.36 122.22 325.92 119.22C327.48 116.1 328.26 112.68 328.26 108.96C328.26 104.76 327.24 101.1 325.2 97.98C323.28 94.74 320.52 92.22 316.92 90.42C313.44 88.62 309.48 87.72 305.04 87.72H274.08V128.94ZM407.961 196.8C400.161 196.8 393.021 194.64 386.541 190.32C380.181 186 375.081 180.12 371.241 172.68C367.401 165.24 365.481 156.84 365.481 147.48C365.481 138 367.401 129.6 371.241 122.28C375.201 114.84 380.481 109.02 387.081 104.82C393.801 100.62 401.301 98.52 409.581 98.52C414.501 98.52 419.001 99.24 423.081 100.68C427.161 102.12 430.701 104.16 433.701 106.8C436.821 109.32 439.341 112.26 441.261 115.62C443.301 118.98 444.561 122.58 445.041 126.42L440.901 124.98V100.5H459.621V195H440.901V172.5L445.221 171.24C444.501 174.48 443.001 177.66 440.721 180.78C438.561 183.78 435.741 186.48 432.261 188.88C428.901 191.28 425.121 193.2 420.921 194.64C416.841 196.08 412.521 196.8 407.961 196.8ZM412.821 179.7C418.461 179.7 423.441 178.32 427.761 175.56C432.081 172.8 435.441 169.02 437.841 164.22C440.361 159.3 441.621 153.72 441.621 147.48C441.621 141.36 440.361 135.9 437.841 131.1C435.441 126.3 432.081 122.52 427.761 119.76C423.441 117 418.461 115.62 412.821 115.62C407.301 115.62 402.381 117 398.061 119.76C393.861 122.52 390.501 126.3 387.981 131.1C385.581 135.9 384.381 141.36 384.381 147.48C384.381 153.72 385.581 159.3 387.981 164.22C390.501 169.02 393.861 172.8 398.061 175.56C402.381 178.32 407.301 179.7 412.821 179.7ZM517.007 196.8C509.087 196.8 501.947 195.42 495.587 192.66C489.227 189.9 483.947 185.82 479.747 180.42L492.347 169.62C495.947 173.82 499.847 176.88 504.047 178.8C508.367 180.6 513.227 181.5 518.627 181.5C520.787 181.5 522.767 181.26 524.567 180.78C526.487 180.18 528.107 179.34 529.427 178.26C530.867 177.18 531.947 175.92 532.667 174.48C533.387 172.92 533.747 171.24 533.747 169.44C533.747 166.32 532.607 163.8 530.327 161.88C529.127 161.04 527.207 160.14 524.567 159.18C522.047 158.1 518.747 157.02 514.667 155.94C507.707 154.14 502.007 152.1 497.567 149.82C493.127 147.54 489.707 144.96 487.307 142.08C485.507 139.8 484.187 137.34 483.347 134.7C482.507 131.94 482.087 128.94 482.087 125.7C482.087 121.74 482.927 118.14 484.607 114.9C486.407 111.54 488.807 108.66 491.807 106.26C494.927 103.74 498.527 101.82 502.607 100.5C506.807 99.18 511.247 98.52 515.927 98.52C520.367 98.52 524.747 99.12 529.067 100.32C533.507 101.52 537.587 103.26 541.307 105.54C545.027 107.82 548.147 110.52 550.667 113.64L540.047 125.34C537.767 123.06 535.247 121.08 532.487 119.4C529.847 117.6 527.147 116.22 524.387 115.26C521.627 114.3 519.107 113.82 516.827 113.82C514.307 113.82 512.027 114.06 509.987 114.54C507.947 115.02 506.207 115.74 504.767 116.7C503.447 117.66 502.427 118.86 501.707 120.3C500.987 121.74 500.627 123.36 500.627 125.16C500.747 126.72 501.107 128.22 501.707 129.66C502.427 130.98 503.387 132.12 504.587 133.08C505.907 134.04 507.887 135.06 510.527 136.14C513.167 137.22 516.527 138.24 520.607 139.2C526.607 140.76 531.527 142.5 535.367 144.42C539.327 146.22 542.447 148.32 544.727 150.72C547.127 153 548.807 155.64 549.767 158.64C550.727 161.64 551.207 165 551.207 168.72C551.207 174.12 549.647 178.98 546.527 183.3C543.527 187.5 539.447 190.8 534.287 193.2C529.127 195.6 523.367 196.8 517.007 196.8ZM615.74 196.8C606.02 196.8 597.38 194.76 589.82 190.68C582.38 186.48 576.5 180.78 572.18 173.58C567.98 166.38 565.88 158.1 565.88 148.74C565.88 141.3 567.08 134.52 569.48 128.4C571.88 122.28 575.18 117 579.38 112.56C583.7 108 588.8 104.52 594.68 102.12C600.68 99.6 607.16 98.34 614.12 98.34C620.24 98.34 625.94 99.54 631.22 101.94C636.5 104.22 641.06 107.4 644.9 111.48C648.86 115.56 651.86 120.42 653.9 126.06C656.06 131.58 657.08 137.64 656.96 144.24L656.78 152.16H579.56L575.42 137.4H640.76L638.06 140.46V136.14C637.7 132.18 636.38 128.64 634.1 125.52C631.82 122.4 628.94 119.94 625.46 118.14C621.98 116.34 618.2 115.44 614.12 115.44C607.64 115.44 602.18 116.7 597.74 119.22C593.3 121.62 589.94 125.22 587.66 130.02C585.38 134.7 584.24 140.52 584.24 147.48C584.24 154.08 585.62 159.84 588.38 164.76C591.14 169.56 595.04 173.28 600.08 175.92C605.12 178.56 610.94 179.88 617.54 179.88C622.22 179.88 626.54 179.1 630.5 177.54C634.58 175.98 638.96 173.16 643.64 169.08L653 182.22C650.12 185.1 646.58 187.62 642.38 189.78C638.3 191.94 633.92 193.68 629.24 195C624.68 196.2 620.18 196.8 615.74 196.8ZM677.108 195V100.5H695.648V119.94L692.408 122.1C693.608 117.9 695.948 114.06 699.428 110.58C702.908 106.98 707.048 104.1 711.848 101.94C716.648 99.66 721.568 98.52 726.608 98.52C733.808 98.52 739.808 99.96 744.608 102.84C749.408 105.6 753.008 109.86 755.408 115.62C757.808 121.38 759.008 128.64 759.008 137.4V195H740.468V138.66C740.468 133.26 739.748 128.82 738.308 125.34C736.868 121.74 734.648 119.16 731.648 117.6C728.648 115.92 724.928 115.2 720.488 115.44C716.888 115.44 713.588 116.04 710.588 117.24C707.588 118.32 704.948 119.88 702.668 121.92C700.508 123.96 698.768 126.36 697.448 129.12C696.248 131.76 695.648 134.64 695.648 137.76V195H686.468C684.908 195 683.348 195 681.788 195C680.228 195 678.668 195 677.108 195ZM826.459 236.4C819.739 236.4 813.019 235.32 806.299 233.16C799.699 231.12 794.359 228.42 790.279 225.06L797.119 210.66C799.519 212.46 802.339 214.02 805.579 215.34C808.819 216.78 812.239 217.86 815.839 218.58C819.439 219.42 822.979 219.84 826.459 219.84C833.059 219.84 838.579 218.76 843.019 216.6C847.459 214.44 850.819 211.26 853.099 207.06C855.379 202.86 856.519 197.64 856.519 191.4V173.22L858.499 174.48C857.899 178.2 855.919 181.8 852.559 185.28C849.319 188.64 845.239 191.4 840.319 193.56C835.399 195.72 830.359 196.8 825.199 196.8C816.199 196.8 808.159 194.7 801.079 190.5C794.119 186.18 788.599 180.36 784.519 173.04C780.439 165.6 778.399 157.14 778.399 147.66C778.399 138.18 780.379 129.78 784.339 122.46C788.419 115.02 793.939 109.2 800.899 105C807.979 100.68 815.899 98.52 824.659 98.52C828.259 98.52 831.739 99 835.099 99.96C838.459 100.8 841.579 102.06 844.459 103.74C847.339 105.3 849.919 107.04 852.199 108.96C854.479 110.88 856.339 112.92 857.779 115.08C859.219 117.24 860.119 119.28 860.479 121.2L856.519 122.64V100.5H875.059V189.24C875.059 196.8 873.919 203.46 871.639 209.22C869.479 215.1 866.299 220.02 862.099 223.98C857.899 228.06 852.799 231.12 846.799 233.16C840.799 235.32 834.019 236.4 826.459 236.4ZM827.179 179.7C833.059 179.7 838.279 178.32 842.839 175.56C847.399 172.8 850.939 169.02 853.459 164.22C855.979 159.42 857.239 153.9 857.239 147.66C857.239 141.42 855.919 135.9 853.279 131.1C850.759 126.18 847.219 122.34 842.659 119.58C838.219 116.82 833.059 115.44 827.179 115.44C821.419 115.44 816.259 116.88 811.699 119.76C807.259 122.52 803.719 126.36 801.079 131.28C798.559 136.08 797.299 141.54 797.299 147.66C797.299 153.78 798.559 159.3 801.079 164.22C803.719 169.02 807.259 172.8 811.699 175.56C816.259 178.32 821.419 179.7 827.179 179.7ZM937.414 196.8C929.614 196.8 922.474 194.64 915.994 190.32C909.634 186 904.534 180.12 900.694 172.68C896.854 165.24 894.934 156.84 894.934 147.48C894.934 138 896.854 129.6 900.694 122.28C904.654 114.84 909.934 109.02 916.534 104.82C923.254 100.62 930.754 98.52 939.034 98.52C943.954 98.52 948.454 99.24 952.534 100.68C956.614 102.12 960.154 104.16 963.154 106.8C966.274 109.32 968.794 112.26 970.714 115.62C972.754 118.98 974.014 122.58 974.494 126.42L970.354 124.98V100.5H989.074V195H970.354V172.5L974.674 171.24C973.954 174.48 972.454 177.66 970.174 180.78C968.014 183.78 965.194 186.48 961.714 188.88C958.354 191.28 954.574 193.2 950.374 194.64C946.294 196.08 941.974 196.8 937.414 196.8ZM942.274 179.7C947.914 179.7 952.894 178.32 957.214 175.56C961.534 172.8 964.894 169.02 967.294 164.22C969.814 159.3 971.074 153.72 971.074 147.48C971.074 141.36 969.814 135.9 967.294 131.1C964.894 126.3 961.534 122.52 957.214 119.76C952.894 117 947.914 115.62 942.274 115.62C936.754 115.62 931.834 117 927.514 119.76C923.314 122.52 919.954 126.3 917.434 131.1C915.034 135.9 913.834 141.36 913.834 147.48C913.834 153.72 915.034 159.3 917.434 164.22C919.954 169.02 923.314 172.8 927.514 175.56C931.834 178.32 936.754 179.7 942.274 179.7ZM1014.96 195V100.5H1033.5V119.94L1030.26 122.1C1031.46 117.9 1033.8 114.06 1037.28 110.58C1040.76 106.98 1044.9 104.1 1049.7 101.94C1054.5 99.66 1059.42 98.52 1064.46 98.52C1071.66 98.52 1077.66 99.96 1082.46 102.84C1087.26 105.6 1090.86 109.86 1093.26 115.62C1095.66 121.38 1096.86 128.64 1096.86 137.4V195H1078.32V138.66C1078.32 133.26 1077.6 128.82 1076.16 125.34C1074.72 121.74 1072.5 119.16 1069.5 117.6C1066.5 115.92 1062.78 115.2 1058.34 115.44C1054.74 115.44 1051.44 116.04 1048.44 117.24C1045.44 118.32 1042.8 119.88 1040.52 121.92C1038.36 123.96 1036.62 126.36 1035.3 129.12C1034.1 131.76 1033.5 134.64 1033.5 137.76V195H1024.32C1022.76 195 1021.2 195 1019.64 195C1018.08 195 1016.52 195 1014.96 195ZM1110.67 230.46L1103.65 216.24C1108.33 216.24 1112.17 215.4 1115.17 213.72C1118.29 212.16 1120.63 209.76 1122.19 206.52C1123.75 203.4 1124.53 199.5 1124.53 194.82V100.5H1143.07V199.32C1143.07 205.44 1141.69 210.84 1138.93 215.52C1136.29 220.2 1132.51 223.86 1127.59 226.5C1122.79 229.14 1117.15 230.46 1110.67 230.46ZM1134.25 79.62C1130.29 79.62 1127.23 78.6 1125.07 76.56C1122.91 74.52 1121.83 71.64 1121.83 67.92C1121.83 64.44 1122.91 61.62 1125.07 59.46C1127.35 57.3 1130.41 56.22 1134.25 56.22C1138.21 56.22 1141.27 57.24 1143.43 59.28C1145.59 61.32 1146.67 64.2 1146.67 67.92C1146.67 71.4 1145.53 74.22 1143.25 76.38C1141.09 78.54 1138.09 79.62 1134.25 79.62ZM1201.15 196.8C1193.23 196.8 1186.09 195.42 1179.73 192.66C1173.37 189.9 1168.09 185.82 1163.89 180.42L1176.49 169.62C1180.09 173.82 1183.99 176.88 1188.19 178.8C1192.51 180.6 1197.37 181.5 1202.77 181.5C1204.93 181.5 1206.91 181.26 1208.71 180.78C1210.63 180.18 1212.25 179.34 1213.57 178.26C1215.01 177.18 1216.09 175.92 1216.81 174.48C1217.53 172.92 1217.89 171.24 1217.89 169.44C1217.89 166.32 1216.75 163.8 1214.47 161.88C1213.27 161.04 1211.35 160.14 1208.71 159.18C1206.19 158.1 1202.89 157.02 1198.81 155.94C1191.85 154.14 1186.15 152.1 1181.71 149.82C1177.27 147.54 1173.85 144.96 1171.45 142.08C1169.65 139.8 1168.33 137.34 1167.49 134.7C1166.65 131.94 1166.23 128.94 1166.23 125.7C1166.23 121.74 1167.07 118.14 1168.75 114.9C1170.55 111.54 1172.95 108.66 1175.95 106.26C1179.07 103.74 1182.67 101.82 1186.75 100.5C1190.95 99.18 1195.39 98.52 1200.07 98.52C1204.51 98.52 1208.89 99.12 1213.21 100.32C1217.65 101.52 1221.73 103.26 1225.45 105.54C1229.17 107.82 1232.29 110.52 1234.81 113.64L1224.19 125.34C1221.91 123.06 1219.39 121.08 1216.63 119.4C1213.99 117.6 1211.29 116.22 1208.53 115.26C1205.77 114.3 1203.25 113.82 1200.97 113.82C1198.45 113.82 1196.17 114.06 1194.13 114.54C1192.09 115.02 1190.35 115.74 1188.91 116.7C1187.59 117.66 1186.57 118.86 1185.85 120.3C1185.13 121.74 1184.77 123.36 1184.77 125.16C1184.89 126.72 1185.25 128.22 1185.85 129.66C1186.57 130.98 1187.53 132.12 1188.73 133.08C1190.05 134.04 1192.03 135.06 1194.67 136.14C1197.31 137.22 1200.67 138.24 1204.75 139.2C1210.75 140.76 1215.67 142.5 1219.51 144.42C1223.47 146.22 1226.59 148.32 1228.87 150.72C1231.27 153 1232.95 155.64 1233.91 158.64C1234.87 161.64 1235.35 165 1235.35 168.72C1235.35 174.12 1233.79 178.98 1230.67 183.3C1227.67 187.5 1223.59 190.8 1218.43 193.2C1213.27 195.6 1207.51 196.8 1201.15 196.8Z" fill="#0E1C32"/>
</svg>
