<svg width="441" height="455" viewBox="0 0 441 455" fill="none" xmlns="http://www.w3.org/2000/svg">
<path d="M147.32 451.469C154.598 450.185 161.29 448.276 166.537 446.315C176.374 442.641 187.798 434.907 195.313 429.054C196.748 427.937 198.682 426.115 200.85 423.929C199.504 424.952 198.114 425.977 196.683 426.993C189.094 432.382 180.341 437.55 171.204 440.855C162.071 444.159 152.464 445.634 143.231 443.511C130.74 440.64 120.418 433.224 113.402 420.207C106.419 407.249 102.747 388.814 103.296 363.895L103.357 361.088L103.462 361.162C104.161 348.382 108.307 299.849 132.182 240.837C104.527 216.11 78.0711 185.129 55.704 146.283L54.6313 144.41C53.1733 141.848 51.7648 139.323 50.3941 136.838L49.968 136.065L50.1069 135.844C42.47 121.008 36.2901 106.208 33.0751 93.3659C31.44 86.8346 30.5589 80.7595 30.6649 75.4159C30.7708 70.0787 31.8638 65.3724 34.2738 61.6768C40.0214 52.8644 49.0501 48.2343 59.1507 46.1882C69.2339 44.1456 80.5052 44.6488 90.9864 46.189C99.9116 47.5005 108.327 49.5756 115.049 51.5236C107.809 47.7477 98.3058 43.1843 87.9588 39.2498C76.7333 34.9812 64.5802 31.4757 53.2827 30.4855C42.3209 29.5249 32.3528 30.9469 24.7904 36.1242L24.0658 36.637C8.47735 48.0466 1.47039 67.5103 2.19205 90.6686C2.91357 113.821 11.3714 140.465 26.4597 165.82C30.9255 173.325 35.1567 180.291 39.3282 186.891L39.6549 187.408L39.5277 188.006C34.8742 209.844 34.4951 232.374 38.412 254.353C42.8936 279.27 52.7958 302.899 67.419 323.572L67.8042 324.116L67.6587 324.766C64.6982 338.011 62.9671 348.482 62.5797 354.71C61.7262 368.43 61.8286 390.492 69.1025 410.279C76.3461 429.983 90.6568 447.359 118.325 452.113C127.69 453.722 137.952 453.12 147.32 451.469ZM136.376 230.856C160.25 175.939 201.353 113.439 272.133 62.6689L271.851 62.5489L274.203 61.0095C290.477 50.3687 307.466 41.0749 322.424 35.56C329.902 32.803 336.925 30.9709 343.13 30.407C349.322 29.8443 354.835 30.5324 359.17 32.97C368.342 38.128 373.545 46.828 376.237 56.7645C378.923 66.6839 379.142 77.9524 378.274 88.5C377.535 97.4861 376 106.014 374.483 112.842C377.793 105.378 381.746 95.604 385.017 85.0284C388.563 73.5623 391.286 61.2212 391.553 49.8963C391.82 38.5533 389.619 28.4308 383.54 21.1743C371.143 6.37663 351.248 0.653914 328.156 2.87541C305.431 5.06163 279.806 14.94 255.77 31.1618L254.626 31.9391C244.641 38.7779 235.644 45.1042 227.257 51.394L226.788 51.7449L226.206 51.6864C210.274 50.0807 194.196 50.6933 178.43 53.4979C154.132 57.8749 131.055 67.3863 110.741 81.3934L109.776 82.0633L108.815 82.7404C88.9242 96.8544 72.2405 115.006 59.8559 136.008C64.7585 144.807 89.8348 187.625 136.376 230.856ZM380.914 377.607C393.132 375.531 405.315 371.347 415.399 363.669C425.457 356.012 433.504 344.824 437.4 328.581L437.399 328.58C441.348 312.128 438.45 292.456 434.733 280.155C431.7 270.115 424.717 258.232 419.355 250.367L419.354 250.366C418.329 248.863 416.633 246.815 414.587 244.512C415.522 245.92 416.458 247.373 417.381 248.865C422.274 256.775 426.87 265.833 429.58 275.152C432.288 284.468 433.138 294.139 430.419 303.208C426.603 315.934 418.055 326.011 403.694 332.115C389.402 338.189 369.418 340.303 342.674 337.366L339.998 337.072L340.08 336.967C322.535 334.991 226.151 321.07 138.96 246.768C124.517 282.528 114.846 323.247 114.221 368.62C151.164 392.748 195.952 401.88 239.437 394.126C261.55 390.164 282.681 381.945 301.655 369.925L302.233 369.559L302.89 369.756C317.816 374.246 329.643 377.048 336.47 377.913C347.549 379.316 364.193 380.448 380.914 377.607Z" stroke="url(#paint0_linear_1_173)" stroke-opacity="0.3" stroke-width="3"/>
<defs>
<linearGradient id="paint0_linear_1_173" x1="74.6189" y1="369.852" x2="95.5081" y2="66.4272" gradientUnits="userSpaceOnUse">
<stop stop-color="#8EBBFF"/>
<stop offset="1" stop-color="#2A7FFF" stop-opacity="0"/>
</linearGradient>
</defs>
</svg>
