<svg width="1243" height="254" viewBox="0 0 1243 254" fill="none" xmlns="http://www.w3.org/2000/svg">
<path d="M43.1396 28.0002C38.7807 28.012 34.072 28.5692 29.9265 30.0719C5.44274 38.9467 9.44677 66.6501 12.4148 78.8277C13.0982 81.6317 14.7238 86.2097 17.1055 91.8952C12.1924 102.387 9.64159 113.829 9.63307 125.414C9.64169 135.63 11.6274 145.749 15.4808 155.21C14.1444 158.499 12.8111 161.954 11.4175 165.666C1.94656 190.89 4.7405 216.436 21.0071 224.396C37.2737 232.357 66.6814 205.816 66.6814 205.816C66.6814 205.816 36.7724 224.53 24.3531 211.32C19.3374 205.985 21.2123 191.907 25.7593 177.23L25.6879 177.152C26.1 175.934 26.5256 174.698 26.97 173.44C33.9114 153.786 43.4442 137.48 54.0449 123.994C36.989 97.0073 31.7285 73.7232 31.1842 71.1569C31.1787 71.1624 31.1733 71.1679 31.1678 71.1734C26.7213 49.1282 31.8999 37.594 42.2198 33.187C57.3783 26.7136 80.0594 44.224 80.0594 44.224C80.0594 44.224 70.2411 36.1397 66.6546 34.2494C62.8177 32.2273 57.0313 29.6485 52.2466 28.7753C49.709 28.3122 46.5299 27.9911 43.1396 28.0002ZM153.224 42.3012C145.444 42.3708 138.038 44.2281 133.179 45.7501C130.148 46.6997 125.055 48.9182 118.749 52.1207C109.244 48.2376 99.0753 46.2401 88.8083 46.2394C68.4958 46.2547 48.9662 54.0762 34.2585 68.0862C38.2282 88.9111 46.069 106.783 55.6944 121.921C91.456 77.8539 138.156 65.1052 139.634 64.7107C139.616 64.6947 139.598 64.6786 139.58 64.6626C162.855 57.7944 175.396 62.1682 180.646 72.5526C188.083 87.2624 172.069 111.025 172.069 111.025C172.069 111.025 179.504 100.706 181.159 97.0054C182.93 93.0463 185.13 87.105 185.693 82.2739C186.376 76.4175 186.103 67.2664 182.962 60.084C176.767 45.9166 164.594 42.1994 153.224 42.3012ZM142.78 67.5255C102.905 77.79 75.5139 101.805 57.5527 124.776C86.3901 168.106 129.409 188.093 134.196 190.221C144.62 182.928 153.133 173.23 159.015 161.949C164.896 150.668 167.973 138.136 167.983 125.414C167.978 114.552 165.738 103.808 161.402 93.8489C157.066 83.89 150.727 74.9298 142.78 67.5255ZM55.9192 126.896C37.5853 151.04 29.7049 173.29 28.5617 176.695C35.9859 185.428 45.218 192.446 55.6199 197.262C66.0218 202.078 77.3455 204.579 88.8083 204.59C96.1274 204.582 103.41 203.56 110.448 201.552C114.704 203.697 119.232 205.806 124.236 208.063C148.797 219.139 174.47 217.997 183.463 202.277C192.455 186.557 167.863 155.501 167.863 155.501C167.863 155.501 184.611 186.553 170.629 198.096C164.26 203.353 147.357 199.147 131.191 192.27C131.213 192.255 131.235 192.24 131.256 192.225C94.7209 175.061 71.0316 149.876 55.9192 126.896Z" fill="white"/>
<path d="M254.64 194V68H308.28C315.48 68 322.08 69.8 328.08 73.4C334.2 76.88 339.06 81.68 342.66 87.8C346.26 93.8 348.06 100.58 348.06 108.14C348.06 114.98 346.26 121.34 342.66 127.22C339.06 133.1 334.26 137.84 328.26 141.44C322.26 144.92 315.6 146.66 308.28 146.66H274.08V194H254.64ZM329.52 194L297.48 137.12L317.46 132.62L353.1 194.18L329.52 194ZM274.08 127.94H310.08C313.56 127.94 316.68 127.1 319.44 125.42C322.2 123.62 324.36 121.22 325.92 118.22C327.48 115.1 328.26 111.68 328.26 107.96C328.26 103.76 327.24 100.1 325.2 96.98C323.28 93.74 320.52 91.22 316.92 89.42C313.44 87.62 309.48 86.72 305.04 86.72H274.08V127.94ZM407.961 195.8C400.161 195.8 393.021 193.64 386.541 189.32C380.181 185 375.081 179.12 371.241 171.68C367.401 164.24 365.481 155.84 365.481 146.48C365.481 137 367.401 128.6 371.241 121.28C375.201 113.84 380.481 108.02 387.081 103.82C393.801 99.62 401.301 97.52 409.581 97.52C414.501 97.52 419.001 98.24 423.081 99.68C427.161 101.12 430.701 103.16 433.701 105.8C436.821 108.32 439.341 111.26 441.261 114.62C443.301 117.98 444.561 121.58 445.041 125.42L440.901 123.98V99.5H459.621V194H440.901V171.5L445.221 170.24C444.501 173.48 443.001 176.66 440.721 179.78C438.561 182.78 435.741 185.48 432.261 187.88C428.901 190.28 425.121 192.2 420.921 193.64C416.841 195.08 412.521 195.8 407.961 195.8ZM412.821 178.7C418.461 178.7 423.441 177.32 427.761 174.56C432.081 171.8 435.441 168.02 437.841 163.22C440.361 158.3 441.621 152.72 441.621 146.48C441.621 140.36 440.361 134.9 437.841 130.1C435.441 125.3 432.081 121.52 427.761 118.76C423.441 116 418.461 114.62 412.821 114.62C407.301 114.62 402.381 116 398.061 118.76C393.861 121.52 390.501 125.3 387.981 130.1C385.581 134.9 384.381 140.36 384.381 146.48C384.381 152.72 385.581 158.3 387.981 163.22C390.501 168.02 393.861 171.8 398.061 174.56C402.381 177.32 407.301 178.7 412.821 178.7ZM517.007 195.8C509.087 195.8 501.947 194.42 495.587 191.66C489.227 188.9 483.947 184.82 479.747 179.42L492.347 168.62C495.947 172.82 499.847 175.88 504.047 177.8C508.367 179.6 513.227 180.5 518.627 180.5C520.787 180.5 522.767 180.26 524.567 179.78C526.487 179.18 528.107 178.34 529.427 177.26C530.867 176.18 531.947 174.92 532.667 173.48C533.387 171.92 533.747 170.24 533.747 168.44C533.747 165.32 532.607 162.8 530.327 160.88C529.127 160.04 527.207 159.14 524.567 158.18C522.047 157.1 518.747 156.02 514.667 154.94C507.707 153.14 502.007 151.1 497.567 148.82C493.127 146.54 489.707 143.96 487.307 141.08C485.507 138.8 484.187 136.34 483.347 133.7C482.507 130.94 482.087 127.94 482.087 124.7C482.087 120.74 482.927 117.14 484.607 113.9C486.407 110.54 488.807 107.66 491.807 105.26C494.927 102.74 498.527 100.82 502.607 99.5C506.807 98.18 511.247 97.52 515.927 97.52C520.367 97.52 524.747 98.12 529.067 99.32C533.507 100.52 537.587 102.26 541.307 104.54C545.027 106.82 548.147 109.52 550.667 112.64L540.047 124.34C537.767 122.06 535.247 120.08 532.487 118.4C529.847 116.6 527.147 115.22 524.387 114.26C521.627 113.3 519.107 112.82 516.827 112.82C514.307 112.82 512.027 113.06 509.987 113.54C507.947 114.02 506.207 114.74 504.767 115.7C503.447 116.66 502.427 117.86 501.707 119.3C500.987 120.74 500.627 122.36 500.627 124.16C500.747 125.72 501.107 127.22 501.707 128.66C502.427 129.98 503.387 131.12 504.587 132.08C505.907 133.04 507.887 134.06 510.527 135.14C513.167 136.22 516.527 137.24 520.607 138.2C526.607 139.76 531.527 141.5 535.367 143.42C539.327 145.22 542.447 147.32 544.727 149.72C547.127 152 548.807 154.64 549.767 157.64C550.727 160.64 551.207 164 551.207 167.72C551.207 173.12 549.647 177.98 546.527 182.3C543.527 186.5 539.447 189.8 534.287 192.2C529.127 194.6 523.367 195.8 517.007 195.8ZM615.74 195.8C606.02 195.8 597.38 193.76 589.82 189.68C582.38 185.48 576.5 179.78 572.18 172.58C567.98 165.38 565.88 157.1 565.88 147.74C565.88 140.3 567.08 133.52 569.48 127.4C571.88 121.28 575.18 116 579.38 111.56C583.7 107 588.8 103.52 594.68 101.12C600.68 98.6 607.16 97.34 614.12 97.34C620.24 97.34 625.94 98.54 631.22 100.94C636.5 103.22 641.06 106.4 644.9 110.48C648.86 114.56 651.86 119.42 653.9 125.06C656.06 130.58 657.08 136.64 656.96 143.24L656.78 151.16H579.56L575.42 136.4H640.76L638.06 139.46V135.14C637.7 131.18 636.38 127.64 634.1 124.52C631.82 121.4 628.94 118.94 625.46 117.14C621.98 115.34 618.2 114.44 614.12 114.44C607.64 114.44 602.18 115.7 597.74 118.22C593.3 120.62 589.94 124.22 587.66 129.02C585.38 133.7 584.24 139.52 584.24 146.48C584.24 153.08 585.62 158.84 588.38 163.76C591.14 168.56 595.04 172.28 600.08 174.92C605.12 177.56 610.94 178.88 617.54 178.88C622.22 178.88 626.54 178.1 630.5 176.54C634.58 174.98 638.96 172.16 643.64 168.08L653 181.22C650.12 184.1 646.58 186.62 642.38 188.78C638.3 190.94 633.92 192.68 629.24 194C624.68 195.2 620.18 195.8 615.74 195.8ZM677.108 194V99.5H695.648V118.94L692.408 121.1C693.608 116.9 695.948 113.06 699.428 109.58C702.908 105.98 707.048 103.1 711.848 100.94C716.648 98.66 721.568 97.52 726.608 97.52C733.808 97.52 739.808 98.96 744.608 101.84C749.408 104.6 753.008 108.86 755.408 114.62C757.808 120.38 759.008 127.64 759.008 136.4V194H740.468V137.66C740.468 132.26 739.748 127.82 738.308 124.34C736.868 120.74 734.648 118.16 731.648 116.6C728.648 114.92 724.928 114.2 720.488 114.44C716.888 114.44 713.588 115.04 710.588 116.24C707.588 117.32 704.948 118.88 702.668 120.92C700.508 122.96 698.768 125.36 697.448 128.12C696.248 130.76 695.648 133.64 695.648 136.76V194H686.468C684.908 194 683.348 194 681.788 194C680.228 194 678.668 194 677.108 194ZM826.459 235.4C819.739 235.4 813.019 234.32 806.299 232.16C799.699 230.12 794.359 227.42 790.279 224.06L797.119 209.66C799.519 211.46 802.339 213.02 805.579 214.34C808.819 215.78 812.239 216.86 815.839 217.58C819.439 218.42 822.979 218.84 826.459 218.84C833.059 218.84 838.579 217.76 843.019 215.6C847.459 213.44 850.819 210.26 853.099 206.06C855.379 201.86 856.519 196.64 856.519 190.4V172.22L858.499 173.48C857.899 177.2 855.919 180.8 852.559 184.28C849.319 187.64 845.239 190.4 840.319 192.56C835.399 194.72 830.359 195.8 825.199 195.8C816.199 195.8 808.159 193.7 801.079 189.5C794.119 185.18 788.599 179.36 784.519 172.04C780.439 164.6 778.399 156.14 778.399 146.66C778.399 137.18 780.379 128.78 784.339 121.46C788.419 114.02 793.939 108.2 800.899 104C807.979 99.68 815.899 97.52 824.659 97.52C828.259 97.52 831.739 98 835.099 98.96C838.459 99.8 841.579 101.06 844.459 102.74C847.339 104.3 849.919 106.04 852.199 107.96C854.479 109.88 856.339 111.92 857.779 114.08C859.219 116.24 860.119 118.28 860.479 120.2L856.519 121.64V99.5H875.059V188.24C875.059 195.8 873.919 202.46 871.639 208.22C869.479 214.1 866.299 219.02 862.099 222.98C857.899 227.06 852.799 230.12 846.799 232.16C840.799 234.32 834.019 235.4 826.459 235.4ZM827.179 178.7C833.059 178.7 838.279 177.32 842.839 174.56C847.399 171.8 850.939 168.02 853.459 163.22C855.979 158.42 857.239 152.9 857.239 146.66C857.239 140.42 855.919 134.9 853.279 130.1C850.759 125.18 847.219 121.34 842.659 118.58C838.219 115.82 833.059 114.44 827.179 114.44C821.419 114.44 816.259 115.88 811.699 118.76C807.259 121.52 803.719 125.36 801.079 130.28C798.559 135.08 797.299 140.54 797.299 146.66C797.299 152.78 798.559 158.3 801.079 163.22C803.719 168.02 807.259 171.8 811.699 174.56C816.259 177.32 821.419 178.7 827.179 178.7ZM937.414 195.8C929.614 195.8 922.474 193.64 915.994 189.32C909.634 185 904.534 179.12 900.694 171.68C896.854 164.24 894.934 155.84 894.934 146.48C894.934 137 896.854 128.6 900.694 121.28C904.654 113.84 909.934 108.02 916.534 103.82C923.254 99.62 930.754 97.52 939.034 97.52C943.954 97.52 948.454 98.24 952.534 99.68C956.614 101.12 960.154 103.16 963.154 105.8C966.274 108.32 968.794 111.26 970.714 114.62C972.754 117.98 974.014 121.58 974.494 125.42L970.354 123.98V99.5H989.074V194H970.354V171.5L974.674 170.24C973.954 173.48 972.454 176.66 970.174 179.78C968.014 182.78 965.194 185.48 961.714 187.88C958.354 190.28 954.574 192.2 950.374 193.64C946.294 195.08 941.974 195.8 937.414 195.8ZM942.274 178.7C947.914 178.7 952.894 177.32 957.214 174.56C961.534 171.8 964.894 168.02 967.294 163.22C969.814 158.3 971.074 152.72 971.074 146.48C971.074 140.36 969.814 134.9 967.294 130.1C964.894 125.3 961.534 121.52 957.214 118.76C952.894 116 947.914 114.62 942.274 114.62C936.754 114.62 931.834 116 927.514 118.76C923.314 121.52 919.954 125.3 917.434 130.1C915.034 134.9 913.834 140.36 913.834 146.48C913.834 152.72 915.034 158.3 917.434 163.22C919.954 168.02 923.314 171.8 927.514 174.56C931.834 177.32 936.754 178.7 942.274 178.7ZM1014.96 194V99.5H1033.5V118.94L1030.26 121.1C1031.46 116.9 1033.8 113.06 1037.28 109.58C1040.76 105.98 1044.9 103.1 1049.7 100.94C1054.5 98.66 1059.42 97.52 1064.46 97.52C1071.66 97.52 1077.66 98.96 1082.46 101.84C1087.26 104.6 1090.86 108.86 1093.26 114.62C1095.66 120.38 1096.86 127.64 1096.86 136.4V194H1078.32V137.66C1078.32 132.26 1077.6 127.82 1076.16 124.34C1074.72 120.74 1072.5 118.16 1069.5 116.6C1066.5 114.92 1062.78 114.2 1058.34 114.44C1054.74 114.44 1051.44 115.04 1048.44 116.24C1045.44 117.32 1042.8 118.88 1040.52 120.92C1038.36 122.96 1036.62 125.36 1035.3 128.12C1034.1 130.76 1033.5 133.64 1033.5 136.76V194H1024.32C1022.76 194 1021.2 194 1019.64 194C1018.08 194 1016.52 194 1014.96 194ZM1110.67 229.46L1103.65 215.24C1108.33 215.24 1112.17 214.4 1115.17 212.72C1118.29 211.16 1120.63 208.76 1122.19 205.52C1123.75 202.4 1124.53 198.5 1124.53 193.82V99.5H1143.07V198.32C1143.07 204.44 1141.69 209.84 1138.93 214.52C1136.29 219.2 1132.51 222.86 1127.59 225.5C1122.79 228.14 1117.15 229.46 1110.67 229.46ZM1134.25 78.62C1130.29 78.62 1127.23 77.6 1125.07 75.56C1122.91 73.52 1121.83 70.64 1121.83 66.92C1121.83 63.44 1122.91 60.62 1125.07 58.46C1127.35 56.3 1130.41 55.22 1134.25 55.22C1138.21 55.22 1141.27 56.24 1143.43 58.28C1145.59 60.32 1146.67 63.2 1146.67 66.92C1146.67 70.4 1145.53 73.22 1143.25 75.38C1141.09 77.54 1138.09 78.62 1134.25 78.62ZM1201.15 195.8C1193.23 195.8 1186.09 194.42 1179.73 191.66C1173.37 188.9 1168.09 184.82 1163.89 179.42L1176.49 168.62C1180.09 172.82 1183.99 175.88 1188.19 177.8C1192.51 179.6 1197.37 180.5 1202.77 180.5C1204.93 180.5 1206.91 180.26 1208.71 179.78C1210.63 179.18 1212.25 178.34 1213.57 177.26C1215.01 176.18 1216.09 174.92 1216.81 173.48C1217.53 171.92 1217.89 170.24 1217.89 168.44C1217.89 165.32 1216.75 162.8 1214.47 160.88C1213.27 160.04 1211.35 159.14 1208.71 158.18C1206.19 157.1 1202.89 156.02 1198.81 154.94C1191.85 153.14 1186.15 151.1 1181.71 148.82C1177.27 146.54 1173.85 143.96 1171.45 141.08C1169.65 138.8 1168.33 136.34 1167.49 133.7C1166.65 130.94 1166.23 127.94 1166.23 124.7C1166.23 120.74 1167.07 117.14 1168.75 113.9C1170.55 110.54 1172.95 107.66 1175.95 105.26C1179.07 102.74 1182.67 100.82 1186.75 99.5C1190.95 98.18 1195.39 97.52 1200.07 97.52C1204.51 97.52 1208.89 98.12 1213.21 99.32C1217.65 100.52 1221.73 102.26 1225.45 104.54C1229.17 106.82 1232.29 109.52 1234.81 112.64L1224.19 124.34C1221.91 122.06 1219.39 120.08 1216.63 118.4C1213.99 116.6 1211.29 115.22 1208.53 114.26C1205.77 113.3 1203.25 112.82 1200.97 112.82C1198.45 112.82 1196.17 113.06 1194.13 113.54C1192.09 114.02 1190.35 114.74 1188.91 115.7C1187.59 116.66 1186.57 117.86 1185.85 119.3C1185.13 120.74 1184.77 122.36 1184.77 124.16C1184.89 125.72 1185.25 127.22 1185.85 128.66C1186.57 129.98 1187.53 131.12 1188.73 132.08C1190.05 133.04 1192.03 134.06 1194.67 135.14C1197.31 136.22 1200.67 137.24 1204.75 138.2C1210.75 139.76 1215.67 141.5 1219.51 143.42C1223.47 145.22 1226.59 147.32 1228.87 149.72C1231.27 152 1232.95 154.64 1233.91 157.64C1234.87 160.64 1235.35 164 1235.35 167.72C1235.35 173.12 1233.79 177.98 1230.67 182.3C1227.67 186.5 1223.59 189.8 1218.43 192.2C1213.27 194.6 1207.51 195.8 1201.15 195.8Z" fill="white"/>
</svg>
