<svg width="180" height="198" viewBox="0 0 180 198" fill="none" xmlns="http://www.w3.org/2000/svg">
<path d="M37.1396 0.0640492C32.7807 0.0758692 28.072 0.633092 23.9265 2.13577C-0.557263 11.0106 3.44677 38.7139 6.41482 50.8915C7.09823 53.6955 8.72376 58.2735 11.1055 63.959C6.1924 74.4507 3.64159 85.8928 3.63307 97.478C3.64169 107.694 5.62744 117.812 9.48079 127.274C8.14444 130.563 6.81112 134.018 5.41746 137.73C-4.05344 162.954 -1.2595 188.5 15.0071 196.46C31.2737 204.421 60.6814 177.88 60.6814 177.88C60.6814 177.88 30.7724 196.594 18.3531 183.384C13.3374 178.049 15.2123 163.971 19.7593 149.294L19.6879 149.216C20.1 147.998 20.5256 146.762 20.97 145.504C27.9114 125.85 37.4442 109.543 48.0449 96.0579C30.989 69.0711 25.7285 45.787 25.1842 43.2207C25.1787 43.2262 25.1733 43.2317 25.1678 43.2372C20.7213 21.192 25.8999 9.65786 36.2198 5.25081C51.3783 -1.22256 74.0594 16.2879 74.0594 16.2879C74.0594 16.2879 64.2411 8.20354 60.6546 6.31327C56.8177 4.29119 51.0313 1.71238 46.2466 0.83918C43.709 0.376082 40.5299 0.0549592 37.1396 0.0640492ZM147.224 14.365C139.444 14.4346 132.038 16.2919 127.179 17.8139C124.148 18.7635 119.055 20.9821 112.749 24.1846C103.244 20.3014 93.0753 18.3039 82.8083 18.3033C62.4958 18.3186 42.9662 26.14 28.2585 40.1501C32.2282 60.975 40.069 78.8468 49.6944 93.9851C85.456 49.9177 132.156 37.1691 133.634 36.7745C133.616 36.7585 133.598 36.7425 133.58 36.7264C156.855 29.8583 169.396 34.2321 174.646 44.6164C182.083 59.3263 166.069 83.0891 166.069 83.0891C166.069 83.0891 173.504 72.7701 175.159 69.0692C176.93 65.1101 179.13 59.1688 179.693 54.3378C180.376 48.4814 180.103 39.3303 176.962 32.1479C170.767 17.9804 158.594 14.2632 147.224 14.365ZM136.78 39.5894C96.9053 49.8538 69.5139 73.8691 51.5527 96.8403C80.3901 140.17 123.409 160.157 128.196 162.284C138.62 154.991 147.133 145.294 153.015 134.013C158.896 122.732 161.973 110.2 161.983 97.478C161.978 86.6162 159.738 75.8717 155.402 65.9128C151.066 55.9539 144.727 46.9936 136.78 39.5894ZM49.9192 98.9595C31.5853 123.104 23.7049 145.354 22.5617 148.759C29.9859 157.492 39.218 164.51 49.6199 169.326C60.0218 174.142 71.3455 176.642 82.8083 176.654C90.1274 176.646 97.4101 175.624 104.448 173.616C108.704 175.76 113.232 177.87 118.236 180.127C142.797 191.203 168.47 190.061 177.463 174.341C186.455 158.621 161.863 127.565 161.863 127.565C161.863 127.565 178.611 158.617 164.629 170.159C158.26 175.417 141.357 171.211 125.191 164.333C125.213 164.318 125.235 164.303 125.256 164.288C88.7209 147.125 65.0316 121.94 49.9192 98.9595Z" fill="black"/>
</svg>
