<svg width="590" height="140" viewBox="0 0 590 140" fill="none" xmlns="http://www.w3.org/2000/svg">
<path d="M25.9977 0.52004C22.9464 0.5283 19.6504 0.918367 16.7485 1.97024C-0.39008 8.18259 2.41273 27.5749 4.49036 36.0992C4.96875 38.062 6.10663 41.2666 7.77384 45.2464C4.33467 52.5906 2.54911 60.6001 2.54315 68.7096C2.54918 75.861 3.9392 82.9437 6.63654 89.5669C5.7011 91.8691 4.76778 94.2877 3.79222 96.8859C-2.8374 114.543 -0.881653 132.425 10.5049 137.997C21.8915 143.569 42.4769 124.991 42.4769 124.991C42.4769 124.991 21.5406 138.091 12.8472 128.844C9.3362 125.109 10.6486 115.254 13.8314 104.98L13.7815 104.926C14.07 104.074 14.3679 103.208 14.679 102.327C19.5379 88.5698 26.2109 77.1555 33.6314 67.7156C21.6923 48.8249 18.0099 32.526 17.6289 30.7296C17.6251 30.7335 17.6212 30.7373 17.6174 30.7412C14.5049 15.3096 18.1299 7.23569 25.3538 4.15077C35.9647 -0.380585 51.8415 11.8767 51.8415 11.8767C51.8415 11.8767 44.9687 6.21767 42.4581 4.89449C39.7723 3.47903 35.7219 1.67387 32.3726 1.06263C30.5962 0.738462 28.3709 0.513677 25.9977 0.52004ZM103.056 10.5307C97.6103 10.5794 92.4267 11.8795 89.0253 12.9449C86.9031 13.6097 83.3383 15.1626 78.9239 17.4044C72.2708 14.6862 65.1526 13.2879 57.9657 13.2875C43.747 13.2982 30.0763 18.7732 19.7809 28.5802C22.5597 43.1576 28.0482 55.6679 34.786 66.2647C59.8191 35.4176 92.5094 26.4935 93.5434 26.2173C93.5308 26.2061 93.5183 26.1949 93.5057 26.1837C109.798 21.376 118.577 24.4376 122.252 31.7066C127.458 42.0035 116.248 58.6375 116.248 58.6375C116.248 58.6375 121.453 51.4142 122.611 48.8236C123.851 46.0522 125.391 41.8933 125.785 38.5116C126.263 34.4121 126.072 28.0064 123.873 22.9787C119.536 13.0615 111.016 10.4594 103.056 10.5307ZM95.746 28.1877C67.8335 35.3728 48.6597 52.1835 36.0868 68.2633C56.2729 98.5938 86.386 112.585 89.7372 114.074C97.034 108.969 102.993 102.181 107.11 94.2841C111.227 86.3874 113.381 77.615 113.388 68.7096C113.384 61.1064 111.816 53.5852 108.781 46.614C105.746 39.6428 101.309 33.3707 95.746 28.1877ZM34.9434 69.7467C22.1096 86.6479 16.5934 102.223 15.7931 104.606C20.9901 110.72 27.4525 115.632 34.7339 119.003C42.0152 122.374 49.9417 124.125 57.9657 124.132C63.089 124.127 68.1869 123.411 73.1137 122.006C76.0928 123.507 79.2623 124.984 82.7651 126.564C99.9579 134.317 117.929 133.518 124.224 122.514C130.518 111.51 113.304 89.7706 113.304 89.7706C113.304 89.7706 125.028 111.507 115.24 119.587C110.782 123.267 98.9498 120.323 87.6334 115.508C87.6487 115.498 87.664 115.487 87.6793 115.477C62.1045 103.462 45.522 85.8332 34.9434 69.7467Z" fill="black"/>
<path d="M265.859 46.0093C262.377 46.0093 259.13 46.6884 256.117 48.0466C253.129 49.4048 250.721 51.3064 248.894 53.7512C247.066 56.1712 246.153 58.9985 246.153 62.2335C246.153 65.6166 247.005 68.4073 248.709 70.6051C250.437 72.8029 252.783 74.5316 255.746 75.791C258.734 77.0257 262.105 77.9144 265.859 78.4577C267.242 78.6552 268.588 78.9639 269.896 79.3837C271.23 79.7788 272.316 80.3223 273.156 81.0137C274.02 81.6805 274.452 82.5326 274.452 83.5697C274.452 84.5822 274.045 85.4709 273.23 86.2364C272.415 87.0019 271.353 87.6071 270.044 88.0516C268.736 88.4714 267.34 88.6814 265.859 88.6814C264.254 88.6814 262.797 88.4714 261.488 88.0516C260.179 87.6071 259.093 87.0515 258.228 86.3847C257.389 85.718 256.845 85.0267 256.598 84.3106L246.153 88.1627C247.042 90.5827 248.486 92.6696 250.486 94.4229C252.487 96.1515 254.821 97.4849 257.487 98.4233C260.154 99.337 262.945 99.7939 265.859 99.7939C269.39 99.7939 272.65 99.1148 275.638 97.7566C278.626 96.3984 281.021 94.5093 282.824 92.0893C284.651 89.6446 285.565 86.8047 285.565 83.5697C285.565 80.3841 284.664 77.6799 282.861 75.4575C281.058 73.235 278.663 71.4572 275.675 70.1237C272.687 68.7902 269.415 67.8641 265.859 67.3455C264.303 67.1233 262.871 66.8763 261.562 66.6047C260.278 66.3331 259.241 65.8761 258.45 65.2341C257.66 64.5673 257.265 63.567 257.265 62.2335C257.265 61.2704 257.685 60.4061 258.525 59.6406C259.364 58.8751 260.438 58.2703 261.747 57.8258C263.056 57.3813 264.426 57.1713 265.859 57.196C267.464 57.196 268.921 57.4059 270.23 57.8258C271.538 58.2456 272.613 58.7886 273.452 59.4554C274.317 60.0974 274.872 60.7765 275.119 61.4927L285.565 57.7147C284.701 55.27 283.269 53.1709 281.268 51.4176C279.268 49.6643 276.922 48.3309 274.23 47.4172C271.563 46.4788 268.773 46.0093 265.859 46.0093ZM410.098 46.0835C406.814 46.0835 403.629 46.7256 400.542 48.0097C397.48 49.2938 394.726 51.1334 392.282 53.5287C389.861 55.8994 387.935 58.7148 386.503 61.9745C385.096 65.2341 384.392 68.8518 384.392 72.8276C384.392 76.5071 385.034 79.9765 386.318 83.2362C387.602 86.4959 389.392 89.3727 391.689 91.8668C393.986 94.3363 396.677 96.2749 399.764 97.6825C402.875 99.09 406.246 99.7939 409.876 99.7939C413.556 99.7939 416.976 99.0531 420.137 97.5714C423.298 96.0897 426.051 94.0399 428.397 91.4223C430.743 88.8047 432.534 85.7921 433.768 82.3843C435.028 78.9518 435.558 75.2971 435.361 71.4201H415.284V81.0506H422.248C421.483 82.3594 420.631 83.4954 419.692 84.4585C418.754 85.4216 417.754 86.212 416.692 86.8293C415.63 87.4467 414.531 87.9158 413.395 88.2368C412.284 88.5331 411.161 88.6814 410.025 88.6814C408.024 88.6814 406.148 88.2862 404.394 87.496C402.641 86.6811 401.098 85.5698 399.764 84.1622C398.431 82.73 397.381 81.0631 396.615 79.1616C395.875 77.2602 395.504 75.2228 395.504 73.0497C395.504 70.6791 395.899 68.5183 396.69 66.5675C397.505 64.6166 398.591 62.9375 399.949 61.5299C401.307 60.1223 402.851 59.0359 404.579 58.2703C406.308 57.5048 408.098 57.1218 409.95 57.1218C411.778 57.1218 413.58 57.5292 415.358 58.3441C417.161 59.1343 418.816 60.3816 420.322 62.0856L430.249 56.7514C427.434 52.9979 424.273 50.2815 420.767 48.6022C417.26 46.923 413.704 46.0835 410.098 46.0835ZM150.956 46.9726V98.8306H162.069V78.6801H165.921L177.626 98.8306H190.442L178.145 77.643C179.997 76.7541 181.602 75.5811 182.96 74.1241C184.343 72.6424 185.405 70.9508 186.146 69.0493C186.887 67.1232 187.257 65.0489 187.257 62.8264C187.257 59.9371 186.578 57.2947 185.22 54.8993C183.886 52.4793 182.071 50.5532 179.775 49.121C177.478 47.6887 174.91 46.9726 172.07 46.9726H150.956ZM212.593 46.9726L193.776 98.8306H205.555L208.519 90.6814H229.188L232.151 98.8306H243.93L225.113 46.9726H212.593ZM293.714 46.9726V98.8306H326.755V87.7181H304.827V76.6056H321.718V65.4935H304.827V58.0851H326.755V46.9726H293.714ZM334.904 46.9726V98.8306H346.017V67.0489L364.982 98.8306H376.983V46.9726H365.871V78.7543L346.906 46.9726H334.904ZM455.697 46.9726L436.879 98.8306H448.659L451.622 90.6814H472.291L475.255 98.8306H487.034L468.217 46.9726H455.697ZM492.96 46.9726V98.8306H504.073V67.0489L523.038 98.8306H535.04V46.9726H523.927V78.7543L504.962 46.9726H492.96ZM162.069 56.4551H170.737C171.724 56.4551 172.626 56.7143 173.441 57.2329C174.255 57.7268 174.91 58.3937 175.404 59.2333C175.898 60.0729 176.144 60.9989 176.144 62.0114C176.144 63.0239 175.898 63.9499 175.404 64.7895C174.91 65.6291 174.255 66.3082 173.441 66.8268C172.626 67.3207 171.724 67.5676 170.737 67.5676H162.069V56.4551ZM218.816 62.3818L225.113 79.5689H212.593L218.816 62.3818ZM461.92 62.3818L468.217 79.5689H455.697L461.92 62.3818ZM581.394 78.3777C580.002 78.3777 578.703 78.6494 577.497 79.1927C576.302 79.736 575.339 80.4967 574.608 81.4745C573.877 82.4426 573.512 83.5733 573.512 84.8673C573.512 86.2205 573.853 87.3367 574.534 88.2158C575.226 89.095 576.164 89.7866 577.35 90.2904C578.545 90.7843 579.893 91.1398 581.394 91.3571C581.948 91.4362 582.486 91.5596 583.009 91.7276C583.543 91.8856 583.977 92.1028 584.313 92.3794C584.659 92.6461 584.832 92.9868 584.832 93.4017C584.832 93.8067 584.669 94.1626 584.343 94.4688C584.017 94.775 583.592 95.017 583.069 95.1948C582.545 95.3627 581.987 95.4466 581.394 95.4466C580.752 95.4466 580.169 95.3627 579.646 95.1948C579.122 95.017 578.688 94.7945 578.342 94.5278C578.006 94.2611 577.789 93.9847 577.69 93.6983L573.512 95.2389C573.867 96.207 574.445 97.0419 575.245 97.7432C576.045 98.4347 576.979 98.9678 578.046 99.3432C579.113 99.7087 580.229 99.8916 581.394 99.8916C582.807 99.8916 584.111 99.6199 585.306 99.0766C586.501 98.5333 587.459 97.7776 588.18 96.8096C588.911 95.8317 589.277 94.6957 589.277 93.4017C589.277 92.1274 588.916 91.0459 588.195 90.1569C587.474 89.2679 586.516 88.5568 585.321 88.0234C584.125 87.49 582.817 87.1196 581.394 86.9122C580.772 86.8233 580.199 86.7245 579.675 86.6159C579.162 86.5072 578.747 86.3243 578.431 86.0675C578.115 85.8008 577.957 85.4007 577.957 84.8673C577.957 84.482 578.125 84.1364 578.461 83.8302C578.797 83.524 579.226 83.282 579.75 83.1042C580.273 82.9264 580.822 82.8425 581.394 82.8524C582.037 82.8524 582.619 82.9362 583.143 83.1042C583.666 83.2721 584.096 83.4893 584.432 83.756C584.777 84.0128 585 84.2845 585.099 84.571L589.277 83.0597C588.931 82.0818 588.358 81.2422 587.558 80.5409C586.758 79.8396 585.82 79.3061 584.743 78.9406C583.676 78.5652 582.56 78.3777 581.394 78.3777ZM565.807 78.763V92.8982C565.807 93.3624 565.689 93.7869 565.452 94.1722C565.225 94.5574 564.918 94.8687 564.533 95.1058C564.148 95.333 563.723 95.4466 563.259 95.4466C562.874 95.4466 562.547 95.3822 562.281 95.2538C562.014 95.1155 561.797 94.9824 561.629 94.854L558.784 98.2616C559.406 98.795 560.103 99.2001 560.873 99.4767C561.654 99.7532 562.449 99.8916 563.259 99.8916C564.543 99.8916 565.713 99.5753 566.77 98.9431C567.827 98.3109 568.672 97.4664 569.304 96.4095C569.936 95.3526 570.252 94.1823 570.252 92.8982V78.763H565.807ZM548.004 88.6814C546.448 88.6814 545.127 89.2245 544.041 90.311C542.979 91.3976 542.448 92.7066 542.448 94.2376C542.448 95.7934 542.979 97.1143 544.041 98.2008C545.127 99.2627 546.448 99.7939 548.004 99.7939C549.535 99.7939 550.844 99.2627 551.93 98.2008C553.017 97.1143 553.56 95.7934 553.56 94.2376C553.56 92.7066 553.017 91.3976 551.93 90.311C550.844 89.2245 549.535 88.6814 548.004 88.6814Z" fill="black"/>
</svg>
