<svg width="180" height="199" viewBox="0 0 180 199" fill="none" xmlns="http://www.w3.org/2000/svg">
<path d="M37.1396 0.178063C32.7807 0.189883 28.072 0.747106 23.9265 2.24978C-0.557263 11.1246 3.44677 38.8279 6.41482 51.0056C7.09823 53.8095 8.72376 58.3875 11.1055 64.073C6.1924 74.5648 3.64159 86.0069 3.63307 97.592C3.64169 107.808 5.62744 117.926 9.48079 127.388C8.14444 130.677 6.81112 134.132 5.41746 137.844C-4.05344 163.068 -1.2595 188.614 15.0071 196.574C31.2737 204.535 60.6814 177.994 60.6814 177.994C60.6814 177.994 30.7724 196.708 18.3531 183.498C13.3374 178.163 15.2123 164.085 19.7593 149.408L19.6879 149.33C20.1 148.112 20.5256 146.876 20.97 145.618C27.9114 125.964 37.4442 109.657 48.0449 96.1719C30.989 69.1851 25.7285 45.901 25.1842 43.3347C25.1787 43.3402 25.1733 43.3457 25.1678 43.3512C20.7213 21.3061 25.8999 9.77187 36.2198 5.36483C51.3783 -1.10855 74.0594 16.4019 74.0594 16.4019C74.0594 16.4019 64.2411 8.31755 60.6546 6.42729C56.8177 4.4052 51.0313 1.8264 46.2466 0.953194C43.709 0.490096 40.5299 0.168973 37.1396 0.178063ZM147.224 14.479C139.444 14.5486 132.038 16.4059 127.179 17.9279C124.148 18.8775 119.055 21.0961 112.749 24.2986C103.244 20.4155 93.0753 18.4179 82.8083 18.4173C62.4958 18.4326 42.9662 26.2541 28.2585 40.2641C32.2282 61.089 40.069 78.9608 49.6944 94.0992C85.456 50.0318 132.156 37.2831 133.634 36.8886C133.616 36.8725 133.598 36.8565 133.58 36.8404C156.855 29.9723 169.396 34.3461 174.646 44.7304C182.083 59.4403 166.069 83.2031 166.069 83.2031C166.069 83.2031 173.504 72.8842 175.159 69.1832C176.93 65.2241 179.13 59.2828 179.693 54.4518C180.376 48.5954 180.103 39.4443 176.962 32.2619C170.767 18.0944 158.594 14.3772 147.224 14.479ZM136.78 39.7034C96.9053 49.9678 69.5139 73.9831 51.5527 96.9543C80.3901 140.284 123.409 160.271 128.196 162.398C138.62 155.105 147.133 145.408 153.015 134.127C158.896 122.846 161.973 110.314 161.983 97.592C161.978 86.7302 159.738 75.9857 155.402 66.0268C151.066 56.0679 144.727 47.1077 136.78 39.7034ZM49.9192 99.0735C31.5853 123.218 23.7049 145.468 22.5617 148.873C29.9859 157.606 39.218 164.624 49.6199 169.44C60.0218 174.256 71.3455 176.756 82.8083 176.768C90.1274 176.76 97.4101 175.738 104.448 173.73C108.704 175.874 113.232 177.984 118.236 180.241C142.797 191.317 168.47 190.175 177.463 174.455C186.455 158.735 161.863 127.679 161.863 127.679C161.863 127.679 178.611 158.731 164.629 170.273C158.26 175.531 141.357 171.325 125.191 164.447C125.213 164.432 125.235 164.417 125.256 164.402C88.7209 147.239 65.0316 122.054 49.9192 99.0735Z" fill="#2A7FFF"/>
</svg>
