<svg width="590" height="139" viewBox="0 0 590 139" fill="none" xmlns="http://www.w3.org/2000/svg">
<path d="M25.9977 0.000131706C22.9464 0.00839171 19.6504 0.398459 16.7485 1.45033C-0.39008 7.66268 2.41273 27.055 4.49036 35.5793C4.96875 37.5421 6.10663 40.7467 7.77384 44.7265C4.33467 52.0707 2.54911 60.0802 2.54315 68.1897C2.54918 75.3411 3.9392 82.4238 6.63654 89.047C5.7011 91.3492 4.76778 93.7678 3.79222 96.366C-2.8374 114.023 -0.881653 131.905 10.5049 137.477C21.8915 143.05 42.4769 124.471 42.4769 124.471C42.4769 124.471 21.5406 137.571 12.8472 128.324C9.3362 124.589 10.6486 114.734 13.8314 104.461L13.7815 104.406C14.07 103.554 14.3679 102.688 14.679 101.808C19.5379 88.0499 26.2109 76.6355 33.6314 67.1957C21.6923 48.305 18.0099 32.0061 17.6289 30.2097C17.6251 30.2136 17.6212 30.2174 17.6174 30.2213C14.5049 14.7897 18.1298 6.7158 25.3538 3.63087C35.9647 -0.900477 51.8415 11.3568 51.8415 11.3568C51.8415 11.3568 44.9687 5.69777 42.4581 4.37459C39.7723 2.95914 35.7218 1.15398 32.3725 0.54274C30.5962 0.21857 28.3709 -0.00623129 25.9977 0.000131706ZM103.056 10.0108C97.6103 10.0595 92.4267 11.3596 89.0253 12.425C86.9031 13.0897 83.3383 14.6427 78.9239 16.8845C72.2708 14.1663 65.1526 12.768 57.9657 12.7676C43.747 12.7783 30.0763 18.2533 19.7809 28.0603C22.5597 42.6377 28.0482 55.148 34.786 65.7448C59.8191 34.8977 92.5094 25.9736 93.5434 25.6974C93.5309 25.6862 93.5183 25.675 93.5058 25.6638C109.798 20.8561 118.577 23.9177 122.252 31.1868C127.458 41.4837 116.248 58.1176 116.248 58.1176C116.248 58.1176 121.453 50.8943 122.611 48.3037C123.851 45.5323 125.391 41.3734 125.785 37.9917C126.263 33.8922 126.072 27.4865 123.873 22.4588C119.537 12.5416 111.016 9.93952 103.056 10.0108ZM95.746 27.6678C67.8335 34.8529 48.6597 51.6636 36.0868 67.7433C56.2729 98.0739 86.386 112.065 89.7372 113.554C97.034 108.449 102.993 101.661 107.11 93.7642C111.227 85.8675 113.381 77.0951 113.388 68.1897C113.384 60.5865 111.816 53.0653 108.781 46.0941C105.746 39.1229 101.309 32.8508 95.746 27.6678ZM34.9434 69.2268C22.1096 86.1279 16.5934 101.703 15.7931 104.086C20.9901 110.2 27.4525 115.112 34.7339 118.483C42.0152 121.855 49.9417 123.605 57.9657 123.613C63.089 123.607 68.1869 122.892 73.1137 121.486C76.0928 122.987 79.2623 124.464 82.7651 126.044C99.9579 133.797 117.929 132.998 124.224 121.994C130.518 110.99 113.304 89.2507 113.304 89.2507C113.304 89.2507 125.028 110.987 115.24 119.067C110.782 122.747 98.9498 119.803 87.6334 114.988C87.6487 114.978 87.664 114.967 87.6793 114.957C62.1045 102.943 45.522 85.3133 34.9434 69.2268Z" fill="#2A7FFF"/>
<path d="M265.859 45.4894C262.377 45.4894 259.13 46.1685 256.117 47.5267C253.129 48.8849 250.721 50.7865 248.894 53.2313C247.066 55.6513 246.153 58.4786 246.153 61.7136C246.153 65.0967 247.005 67.8874 248.709 70.0852C250.437 72.283 252.783 74.0116 255.746 75.2711C258.734 76.5058 262.105 77.3945 265.859 77.9378C267.242 78.1353 268.588 78.444 269.896 78.8638C271.23 79.2589 272.316 79.8024 273.156 80.4938C274.02 81.1605 274.452 82.0126 274.452 83.0498C274.452 84.0623 274.045 84.951 273.23 85.7165C272.415 86.482 271.353 87.0872 270.044 87.5317C268.736 87.9515 267.34 88.1615 265.859 88.1615C264.254 88.1615 262.797 87.9515 261.488 87.5317C260.179 87.0872 259.093 86.5316 258.228 85.8648C257.389 85.1981 256.845 84.5068 256.598 83.7906L246.153 87.6428C247.042 90.0628 248.486 92.1496 250.486 93.9029C252.487 95.6315 254.821 96.965 257.487 97.9034C260.154 98.8171 262.945 99.274 265.859 99.274C269.39 99.274 272.65 98.5949 275.638 97.2367C278.626 95.8785 281.021 93.9894 282.824 91.5694C284.651 89.1246 285.565 86.2848 285.565 83.0498C285.565 79.8642 284.664 77.16 282.861 74.9375C281.058 72.715 278.663 70.9373 275.675 69.6038C272.687 68.2703 269.415 67.3442 265.859 66.8256C264.303 66.6034 262.871 66.3564 261.562 66.0848C260.278 65.8132 259.241 65.3562 258.45 64.7142C257.66 64.0474 257.265 63.0471 257.265 61.7136C257.265 60.7505 257.685 59.8862 258.525 59.1207C259.364 58.3551 260.438 57.7503 261.747 57.3058C263.056 56.8613 264.426 56.6514 265.859 56.6761C267.464 56.6761 268.921 56.886 270.23 57.3058C271.538 57.7256 272.613 58.2687 273.452 58.9355C274.317 59.5775 274.872 60.2566 275.119 60.9728L285.565 57.1948C284.701 54.7501 283.269 52.651 281.268 50.8977C279.268 49.1444 276.922 47.811 274.23 46.8973C271.563 45.9589 268.773 45.4894 265.859 45.4894ZM410.098 45.5636C406.814 45.5636 403.629 46.2057 400.542 47.4898C397.48 48.7739 394.726 50.6135 392.282 53.0088C389.861 55.3795 387.935 58.1949 386.503 61.4546C385.096 64.7142 384.392 68.3319 384.392 72.3077C384.392 75.9872 385.034 79.4566 386.318 82.7163C387.602 85.9759 389.392 88.8528 391.689 91.3469C393.986 93.8164 396.677 95.755 399.764 97.1625C402.875 98.5701 406.246 99.274 409.876 99.274C413.556 99.274 416.976 98.5331 420.137 97.0515C423.298 95.5698 426.051 93.52 428.397 90.9024C430.743 88.2848 432.534 85.2722 433.768 81.8644C435.028 78.4319 435.558 74.7772 435.361 70.9002H415.284V80.5307H422.248C421.483 81.8395 420.631 82.9755 419.692 83.9386C418.754 84.9017 417.754 85.692 416.692 86.3094C415.63 86.9268 414.531 87.3959 413.395 87.7169C412.284 88.0132 411.161 88.1615 410.025 88.1615C408.024 88.1615 406.148 87.7663 404.394 86.9761C402.641 86.1612 401.098 85.0499 399.764 83.6423C398.431 82.2101 397.381 80.5432 396.615 78.6417C395.875 76.7402 395.504 74.7029 395.504 72.5298C395.504 70.1592 395.899 67.9984 396.69 66.0475C397.505 64.0967 398.591 62.4176 399.949 61.01C401.307 59.6024 402.851 58.5159 404.579 57.7504C406.308 56.9849 408.098 56.6019 409.95 56.6019C411.778 56.6019 413.58 57.0093 415.358 57.8242C417.161 58.6144 418.816 59.8617 420.322 61.5656L430.249 56.2315C427.434 52.4779 424.273 49.7616 420.767 48.0823C417.26 46.4031 413.704 45.5636 410.098 45.5636ZM150.956 46.4527V98.3107H162.069V78.1602H165.921L177.626 98.3107H190.442L178.145 77.1231C179.997 76.2341 181.602 75.0611 182.96 73.6042C184.343 72.1225 185.405 70.4309 186.146 68.5294C186.887 66.6032 187.257 64.529 187.257 62.3065C187.257 59.4172 186.578 56.7748 185.22 54.3794C183.886 51.9594 182.071 50.0333 179.775 48.6011C177.478 47.1688 174.91 46.4527 172.07 46.4527H150.956ZM212.593 46.4527L193.776 98.3107H205.555L208.519 90.1615H229.188L232.151 98.3107H243.93L225.113 46.4527H212.593ZM293.714 46.4527V98.3107H326.755V87.1982H304.827V76.0857H321.718V64.9736H304.827V57.5652H326.755V46.4527H293.714ZM334.904 46.4527V98.3107H346.017V66.529L364.982 98.3107H376.983V46.4527H365.871V78.2344L346.906 46.4527H334.904ZM455.697 46.4527L436.879 98.3107H448.659L451.622 90.1615H472.291L475.255 98.3107H487.034L468.217 46.4527H455.697ZM492.96 46.4527V98.3107H504.073V66.529L523.038 98.3107H535.04V46.4527H523.927V78.2344L504.962 46.4527H492.96ZM162.069 55.9352H170.737C171.724 55.9352 172.626 56.1944 173.441 56.713C174.255 57.2068 174.91 57.8738 175.404 58.7134C175.898 59.553 176.144 60.479 176.144 61.4915C176.144 62.504 175.898 63.43 175.404 64.2696C174.91 65.1092 174.255 65.7883 173.441 66.3069C172.626 66.8008 171.724 67.0477 170.737 67.0477H162.069V55.9352ZM218.816 61.8619L225.113 79.049H212.593L218.816 61.8619ZM461.92 61.8619L468.217 79.049H455.697L461.92 61.8619ZM581.394 77.8578C580.002 77.8578 578.703 78.1295 577.497 78.6728C576.302 79.2161 575.339 79.9767 574.608 80.9546C573.877 81.9227 573.512 83.0534 573.512 84.3473C573.512 85.7006 573.853 86.8168 574.534 87.6959C575.226 88.5751 576.164 89.2667 577.35 89.7705C578.545 90.2644 579.893 90.6199 581.394 90.8372C581.948 90.9163 582.486 91.0397 583.009 91.2077C583.543 91.3657 583.977 91.5829 584.313 91.8595C584.659 92.1262 584.832 92.4669 584.832 92.8818C584.832 93.2868 584.669 93.6427 584.343 93.9489C584.017 94.2551 583.592 94.4971 583.069 94.6749C582.545 94.8428 581.987 94.9267 581.394 94.9267C580.752 94.9267 580.169 94.8428 579.646 94.6749C579.122 94.4971 578.688 94.2746 578.342 94.0079C578.006 93.7412 577.789 93.4648 577.69 93.1784L573.512 94.719C573.867 95.687 574.445 96.522 575.245 97.2233C576.045 97.9148 576.979 98.4479 578.046 98.8233C579.113 99.1887 580.229 99.3717 581.394 99.3717C582.807 99.3717 584.111 99.0999 585.306 98.5567C586.501 98.0134 587.459 97.2577 588.18 96.2897C588.911 95.3118 589.277 94.1758 589.277 92.8818C589.277 91.6075 588.916 90.526 588.195 89.637C587.474 88.748 586.516 88.0369 585.321 87.5035C584.125 86.9701 582.817 86.5997 581.394 86.3922C580.772 86.3033 580.199 86.2046 579.675 86.096C579.162 85.9873 578.747 85.8044 578.431 85.5476C578.115 85.2809 577.957 84.8807 577.957 84.3473C577.957 83.9621 578.125 83.6165 578.461 83.3103C578.797 83.004 579.226 82.7621 579.75 82.5843C580.273 82.4065 580.822 82.3226 581.394 82.3325C582.037 82.3325 582.619 82.4163 583.143 82.5843C583.666 82.7522 584.096 82.9694 584.432 83.2361C584.777 83.4929 585 83.7646 585.099 84.0511L589.277 82.5398C588.931 81.5619 588.358 80.7223 587.558 80.021C586.758 79.3197 585.82 78.7862 584.743 78.4207C583.676 78.0453 582.56 77.8578 581.394 77.8578ZM565.807 78.2431V92.3782C565.807 92.8425 565.689 93.267 565.452 93.6523C565.225 94.0375 564.918 94.3488 564.533 94.5859C564.148 94.8131 563.723 94.9267 563.259 94.9267C562.874 94.9267 562.547 94.8623 562.281 94.7339C562.014 94.5956 561.797 94.4625 561.629 94.3341L558.784 97.7417C559.406 98.2751 560.103 98.6802 560.873 98.9567C561.654 99.2333 562.449 99.3717 563.259 99.3717C564.543 99.3717 565.713 99.0554 566.77 98.4232C567.827 97.791 568.672 96.9465 569.304 95.8896C569.936 94.8327 570.252 93.6623 570.252 92.3782V78.2431H565.807ZM548.004 88.1615C546.448 88.1615 545.127 88.7046 544.041 89.7911C542.979 90.8777 542.448 92.1867 542.448 93.7177C542.448 95.2735 542.979 96.5944 544.041 97.6809C545.127 98.7428 546.448 99.274 548.004 99.274C549.535 99.274 550.844 98.7428 551.93 97.6809C553.017 96.5944 553.56 95.2735 553.56 93.7177C553.56 92.1867 553.017 90.8777 551.93 89.7911C550.844 88.7046 549.535 88.1615 548.004 88.1615Z" fill="#2A7FFF"/>
</svg>
