<svg width="180" height="199" viewBox="0 0 180 199" fill="none" xmlns="http://www.w3.org/2000/svg">
<path d="M37.1396 0.950036C32.7807 0.961856 28.072 1.51908 23.9265 3.02175C-0.557263 11.8966 3.44677 39.5999 6.41482 51.7775C7.09823 54.5815 8.72376 59.1595 11.1055 64.845C6.1924 75.3367 3.64159 86.7788 3.63307 98.3639C3.64169 108.58 5.62744 118.698 9.48079 128.16C8.14444 131.449 6.81112 134.904 5.41746 138.616C-4.05344 163.84 -1.2595 189.386 15.0071 197.346C31.2737 205.307 60.6814 178.766 60.6814 178.766C60.6814 178.766 30.7724 197.48 18.3531 184.27C13.3374 178.935 15.2123 164.856 19.7593 150.179L19.6879 150.102C20.1 148.884 20.5256 147.648 20.97 146.39C27.9114 126.736 37.4442 110.429 48.0449 96.9439C30.989 69.9571 25.7285 46.673 25.1842 44.1067C25.1787 44.1122 25.1733 44.1177 25.1678 44.1232C20.7213 22.078 25.8999 10.5438 36.2198 6.1368C51.3783 -0.336573 74.0594 17.1739 74.0594 17.1739C74.0594 17.1739 64.2411 9.08952 60.6546 7.19926C56.8177 5.17718 51.0313 2.59837 46.2466 1.72517C43.709 1.26207 40.5299 0.940946 37.1396 0.950036ZM147.224 15.251C139.444 15.3206 132.038 17.1779 127.179 18.6999C124.148 19.6495 119.055 21.8681 112.749 25.0706C103.244 21.1874 93.0753 19.1899 82.8083 19.1893C62.4958 19.2045 42.9662 27.026 28.2585 41.0361C32.2282 61.861 40.069 79.7328 49.6944 94.8711C85.456 50.8037 132.156 38.055 133.634 37.6605C133.616 37.6445 133.598 37.6284 133.58 37.6124C156.855 30.7442 169.396 35.1181 174.646 45.5024C182.083 60.2123 166.069 83.9751 166.069 83.9751C166.069 83.9751 173.504 73.6561 175.159 69.9552C176.93 65.9961 179.13 60.0548 179.693 55.2238C180.376 49.3674 180.103 40.2163 176.962 33.0339C170.767 18.8664 158.594 15.1492 147.224 15.251ZM136.78 40.4754C96.9053 50.7398 69.5139 74.7551 51.5527 97.7263C80.3901 141.056 123.409 161.043 128.196 163.17C138.62 155.877 147.133 146.18 153.015 134.899C158.896 123.618 161.973 111.086 161.983 98.3639C161.978 87.5021 159.738 76.7576 155.402 66.7988C151.066 56.8399 144.727 47.8796 136.78 40.4754ZM49.9192 99.8455C31.5853 123.99 23.7049 146.24 22.5617 149.645C29.9859 158.378 39.218 165.396 49.6199 170.212C60.0218 175.028 71.3455 177.528 82.8083 177.54C90.1274 177.532 97.4101 176.51 104.448 174.502C108.704 176.646 113.232 178.756 118.236 181.013C142.797 192.089 168.47 190.947 177.463 175.227C186.455 159.507 161.863 128.451 161.863 128.451C161.863 128.451 178.611 159.503 164.629 171.045C158.26 176.303 141.357 172.097 125.191 165.219C125.213 165.204 125.235 165.189 125.256 165.174C88.7209 148.011 65.0316 122.826 49.9192 99.8455Z" fill="white"/>
</svg>
