<svg width="590" height="139" viewBox="0 0 590 139" fill="none" xmlns="http://www.w3.org/2000/svg">
<path d="M25.9977 0.0399373C22.9464 0.0481973 19.6504 0.438264 16.7485 1.49013C-0.39008 7.70249 2.41273 27.0948 4.49036 35.6191C4.96875 37.5819 6.10663 40.7865 7.77384 44.7663C4.33467 52.1105 2.54911 60.12 2.54315 68.2295C2.54918 75.3809 3.9392 82.4636 6.63654 89.0868C5.7011 91.389 4.76778 93.8076 3.79222 96.4058C-2.8374 114.062 -0.881653 131.945 10.5049 137.517C21.8915 143.089 42.4769 124.511 42.4769 124.511C42.4769 124.511 21.5406 137.61 12.8472 128.364C9.3362 124.629 10.6486 114.774 13.8314 104.5L13.7815 104.446C14.07 103.593 14.3679 102.728 14.679 101.847C19.5379 88.0897 26.2109 76.6754 33.6314 67.2355C21.6923 48.3448 18.0099 32.0459 17.6289 30.2495C17.6251 30.2534 17.6212 30.2572 17.6174 30.2611C14.5049 14.8295 18.1299 6.75559 25.3538 3.67066C35.9647 -0.860687 51.8415 11.3966 51.8415 11.3966C51.8415 11.3966 44.9687 5.73757 42.4581 4.41439C39.7723 2.99893 35.7219 1.19377 32.3726 0.582529C30.5962 0.258359 28.3709 0.0335743 25.9977 0.0399373ZM103.056 10.0506C97.6103 10.0993 92.4267 11.3994 89.0253 12.4648C86.9031 13.1295 83.3383 14.6825 78.9239 16.9243C72.2708 14.2061 65.1526 12.8078 57.9657 12.8074C43.747 12.8181 30.0763 18.2931 19.7809 28.1001C22.5597 42.6775 28.0482 55.1878 34.786 65.7846C59.8191 34.9375 92.5094 26.0134 93.5434 25.7372C93.5308 25.726 93.5183 25.7148 93.5057 25.7036C109.798 20.8959 118.577 23.9575 122.252 31.2265C127.458 41.5234 116.248 58.1573 116.248 58.1573C116.248 58.1573 121.453 50.9341 122.611 48.3435C123.851 45.5721 125.391 41.4132 125.785 38.0315C126.263 33.932 126.072 27.5263 123.873 22.4986C119.536 12.5814 111.016 9.97933 103.056 10.0506ZM95.746 27.7076C67.8335 34.8927 48.6597 51.7034 36.0868 67.7831C56.2729 98.1137 86.386 112.105 89.7372 113.594C97.034 108.489 102.993 101.701 107.11 93.804C111.227 85.9073 113.381 77.1349 113.388 68.2295C113.384 60.6263 111.816 53.1051 108.781 46.1339C105.746 39.1627 101.309 32.8906 95.746 27.7076ZM34.9434 69.2666C22.1096 86.1677 16.5934 101.743 15.7931 104.126C20.9901 110.239 27.4525 115.152 34.7339 118.523C42.0152 121.894 49.9417 123.644 57.9657 123.652C63.089 123.647 68.1869 122.931 73.1137 121.526C76.0928 123.027 79.2623 124.504 82.7651 126.084C99.9579 133.837 117.929 133.038 124.224 122.034C130.518 111.03 113.304 89.2905 113.304 89.2905C113.304 89.2905 125.028 111.027 115.24 119.106C110.782 122.787 98.9498 119.842 87.6334 115.028C87.6487 115.018 87.664 115.007 87.6793 114.997C62.1045 102.982 45.522 85.3531 34.9434 69.2666Z" fill="white"/>
<path d="M265.859 45.5292C262.377 45.5292 259.13 46.2083 256.117 47.5665C253.129 48.9247 250.721 50.8263 248.894 53.2711C247.066 55.6911 246.153 58.5184 246.153 61.7534C246.153 65.1365 247.005 67.9272 248.709 70.125C250.437 72.3228 252.783 74.0515 255.746 75.3109C258.734 76.5456 262.105 77.4343 265.859 77.9776C267.242 78.1751 268.588 78.4838 269.896 78.9036C271.23 79.2987 272.316 79.8422 273.156 80.5336C274.02 81.2004 274.452 82.0525 274.452 83.0896C274.452 84.1021 274.045 84.9908 273.23 85.7563C272.415 86.5219 271.353 87.127 270.044 87.5715C268.736 87.9913 267.34 88.2013 265.859 88.2013C264.254 88.2013 262.797 87.9913 261.488 87.5715C260.179 87.127 259.093 86.5714 258.228 85.9046C257.389 85.2379 256.845 84.5466 256.598 83.8305L246.153 87.6826C247.042 90.1026 248.486 92.1895 250.486 93.9428C252.487 95.6714 254.821 97.0048 257.487 97.9432C260.154 98.8569 262.945 99.3138 265.859 99.3138C269.39 99.3138 272.65 98.6347 275.638 97.2765C278.626 95.9183 281.021 94.0292 282.824 91.6092C284.651 89.1645 285.565 86.3246 285.565 83.0896C285.565 79.904 284.664 77.1998 282.861 74.9774C281.058 72.7549 278.663 70.9771 275.675 69.6436C272.687 68.3101 269.415 67.384 265.859 66.8654C264.303 66.6432 262.871 66.3962 261.562 66.1246C260.278 65.853 259.241 65.396 258.45 64.754C257.66 64.0872 257.265 63.0869 257.265 61.7534C257.265 60.7903 257.685 59.926 258.525 59.1605C259.364 58.395 260.438 57.7902 261.747 57.3457C263.056 56.9012 264.426 56.6912 265.859 56.7159C267.464 56.7159 268.921 56.9258 270.23 57.3457C271.538 57.7655 272.613 58.3085 273.452 58.9753C274.317 59.6173 274.872 60.2964 275.119 61.0126L285.565 57.2346C284.701 54.7899 283.269 52.6908 281.268 50.9375C279.268 49.1842 276.922 47.8508 274.23 46.9371C271.563 45.9987 268.773 45.5292 265.859 45.5292ZM410.098 45.6034C406.814 45.6034 403.629 46.2455 400.542 47.5296C397.48 48.8137 394.726 50.6533 392.282 53.0486C389.861 55.4193 387.935 58.2347 386.503 61.4944C385.096 64.754 384.392 68.3717 384.392 72.3475C384.392 76.027 385.034 79.4964 386.318 82.7561C387.602 86.0158 389.392 88.8926 391.689 91.3867C393.986 93.8562 396.677 95.7948 399.764 97.2024C402.875 98.6099 406.246 99.3138 409.876 99.3138C413.556 99.3138 416.976 98.573 420.137 97.0913C423.298 95.6096 426.051 93.5598 428.397 90.9422C430.743 88.3246 432.534 85.312 433.768 81.9042C435.028 78.4717 435.558 74.817 435.361 70.94H415.284V80.5705H422.248C421.483 81.8793 420.631 83.0153 419.692 83.9784C418.754 84.9415 417.754 85.7319 416.692 86.3492C415.63 86.9666 414.531 87.4357 413.395 87.7567C412.284 88.0531 411.161 88.2013 410.025 88.2013C408.024 88.2013 406.148 87.8061 404.394 87.0159C402.641 86.201 401.098 85.0897 399.764 83.6821C398.431 82.2499 397.381 80.583 396.615 78.6815C395.875 76.7801 395.504 74.7427 395.504 72.5696C395.504 70.199 395.899 68.0382 396.69 66.0874C397.505 64.1365 398.591 62.4574 399.949 61.0498C401.307 59.6422 402.851 58.5558 404.579 57.7902C406.308 57.0247 408.098 56.6417 409.95 56.6417C411.778 56.6417 413.58 57.0491 415.358 57.864C417.161 58.6542 418.816 59.9015 420.322 61.6055L430.249 56.2713C427.434 52.5178 424.273 49.8014 420.767 48.1221C417.26 46.4429 413.704 45.6034 410.098 45.6034ZM150.956 46.4925V98.3505H162.069V78.2H165.921L177.626 98.3505H190.442L178.145 77.163C179.997 76.274 181.602 75.101 182.96 73.644C184.343 72.1623 185.405 70.4707 186.146 68.5692C186.887 66.6431 187.257 64.5688 187.257 62.3463C187.257 59.457 186.578 56.8146 185.22 54.4192C183.886 51.9992 182.071 50.0731 179.775 48.6409C177.478 47.2086 174.91 46.4925 172.07 46.4925H150.956ZM212.593 46.4925L193.776 98.3505H205.555L208.519 90.2013H229.188L232.151 98.3505H243.93L225.113 46.4925H212.593ZM293.714 46.4925V98.3505H326.755V87.238H304.827V76.1255H321.718V65.0134H304.827V57.605H326.755V46.4925H293.714ZM334.904 46.4925V98.3505H346.017V66.5688L364.982 98.3505H376.983V46.4925H365.871V78.2742L346.906 46.4925H334.904ZM455.697 46.4925L436.879 98.3505H448.659L451.622 90.2013H472.291L475.255 98.3505H487.034L468.217 46.4925H455.697ZM492.96 46.4925V98.3505H504.073V66.5688L523.038 98.3505H535.04V46.4925H523.927V78.2742L504.962 46.4925H492.96ZM162.069 55.975H170.737C171.724 55.975 172.626 56.2342 173.441 56.7528C174.255 57.2467 174.91 57.9136 175.404 58.7532C175.898 59.5928 176.144 60.5188 176.144 61.5313C176.144 62.5438 175.898 63.4698 175.404 64.3094C174.91 65.149 174.255 65.8281 173.441 66.3467C172.626 66.8406 171.724 67.0875 170.737 67.0875H162.069V55.975ZM218.816 61.9017L225.113 79.0888H212.593L218.816 61.9017ZM461.92 61.9017L468.217 79.0888H455.697L461.92 61.9017ZM581.394 77.8976C580.002 77.8976 578.703 78.1693 577.497 78.7126C576.302 79.2559 575.339 80.0166 574.608 80.9944C573.877 81.9625 573.512 83.0932 573.512 84.3872C573.512 85.7404 573.853 86.8566 574.534 87.7357C575.226 88.6149 576.164 89.3065 577.35 89.8103C578.545 90.3042 579.893 90.6597 581.394 90.877C581.948 90.9561 582.486 91.0795 583.009 91.2475C583.543 91.4055 583.977 91.6227 584.313 91.8993C584.659 92.166 584.832 92.5067 584.832 92.9216C584.832 93.3266 584.669 93.6825 584.343 93.9887C584.017 94.2949 583.592 94.5369 583.069 94.7147C582.545 94.8826 581.987 94.9665 581.394 94.9665C580.752 94.9665 580.169 94.8826 579.646 94.7147C579.122 94.5369 578.688 94.3144 578.342 94.0477C578.006 93.781 577.789 93.5047 577.69 93.2182L573.512 94.7588C573.867 95.7269 574.445 96.5618 575.245 97.2631C576.045 97.9546 576.979 98.4877 578.046 98.8631C579.113 99.2286 580.229 99.4115 581.394 99.4115C582.807 99.4115 584.111 99.1398 585.306 98.5965C586.501 98.0532 587.459 97.2975 588.18 96.3295C588.911 95.3516 589.277 94.2156 589.277 92.9216C589.277 91.6474 588.916 90.5658 588.195 89.6768C587.474 88.7878 586.516 88.0767 585.321 87.5433C584.125 87.0099 582.817 86.6395 581.394 86.4321C580.772 86.3432 580.199 86.2444 579.675 86.1358C579.162 86.0271 578.747 85.8442 578.431 85.5874C578.115 85.3207 577.957 84.9206 577.957 84.3872C577.957 84.0019 578.125 83.6563 578.461 83.3501C578.797 83.0439 579.226 82.8019 579.75 82.6241C580.273 82.4463 580.822 82.3624 581.394 82.3723C582.037 82.3723 582.619 82.4561 583.143 82.6241C583.666 82.792 584.096 83.0092 584.432 83.2759C584.777 83.5327 585 83.8045 585.099 84.0909L589.277 82.5796C588.931 81.6017 588.358 80.7621 587.558 80.0608C586.758 79.3595 585.82 78.826 584.743 78.4605C583.676 78.0851 582.56 77.8976 581.394 77.8976ZM565.807 78.2829V92.4181C565.807 92.8823 565.689 93.3068 565.452 93.6921C565.225 94.0773 564.918 94.3886 564.533 94.6257C564.148 94.8529 563.723 94.9665 563.259 94.9665C562.874 94.9665 562.547 94.9021 562.281 94.7737C562.014 94.6354 561.797 94.5023 561.629 94.3739L558.784 97.7815C559.406 98.3149 560.103 98.72 560.873 98.9966C561.654 99.2731 562.449 99.4115 563.259 99.4115C564.543 99.4115 565.713 99.0952 566.77 98.463C567.827 97.8308 568.672 96.9863 569.304 95.9294C569.936 94.8725 570.252 93.7022 570.252 92.4181V78.2829H565.807ZM548.004 88.2013C546.448 88.2013 545.127 88.7444 544.041 89.8309C542.979 90.9175 542.448 92.2265 542.448 93.7575C542.448 95.3133 542.979 96.6342 544.041 97.7207C545.127 98.7826 546.448 99.3138 548.004 99.3138C549.535 99.3138 550.844 98.7826 551.93 97.7207C553.017 96.6342 553.56 95.3133 553.56 93.7575C553.56 92.2265 553.017 90.9175 551.93 89.8309C550.844 88.7444 549.535 88.2013 548.004 88.2013Z" fill="white"/>
</svg>
