<svg width="1056" height="341" viewBox="0 0 1056 341" fill="none" xmlns="http://www.w3.org/2000/svg">
<g opacity="0.53">
<line x1="-13" y1="27.7" x2="1427" y2="27.7001" stroke="white" stroke-opacity="0.2" stroke-width="0.6"/>
<line x1="-13" y1="92.325" x2="1427" y2="92.3251" stroke="white" stroke-opacity="0.2" stroke-width="0.6"/>
<line x1="-13" y1="156.95" x2="1427" y2="156.95" stroke="white" stroke-opacity="0.2" stroke-width="0.6"/>
<line x1="-13" y1="221.575" x2="1427" y2="221.575" stroke="white" stroke-opacity="0.2" stroke-width="0.6"/>
<line x1="-13" y1="286.2" x2="1427" y2="286.2" stroke="white" stroke-opacity="0.2" stroke-width="0.6"/>
<line x1="113.7" y1="481" x2="113.7" y2="-959" stroke="white" stroke-opacity="0.2" stroke-width="0.6"/>
<line x1="177.315" y1="481" x2="177.315" y2="-959" stroke="white" stroke-opacity="0.2" stroke-width="0.6"/>
<line x1="240.931" y1="481" x2="240.931" y2="-959" stroke="white" stroke-opacity="0.2" stroke-width="0.6"/>
<line x1="304.546" y1="481" x2="304.546" y2="-959" stroke="white" stroke-opacity="0.2" stroke-width="0.6"/>
<line x1="368.161" y1="481" x2="368.161" y2="-959" stroke="white" stroke-opacity="0.2" stroke-width="0.6"/>
<line x1="431.777" y1="481" x2="431.777" y2="-959" stroke="white" stroke-opacity="0.2" stroke-width="0.6"/>
<line x1="495.392" y1="481" x2="495.392" y2="-959" stroke="white" stroke-opacity="0.2" stroke-width="0.6"/>
<line x1="559.008" y1="481" x2="559.008" y2="-959" stroke="white" stroke-opacity="0.2" stroke-width="0.6"/>
<line x1="622.623" y1="481" x2="622.623" y2="-959" stroke="white" stroke-opacity="0.2" stroke-width="0.6"/>
<line x1="686.239" y1="481" x2="686.239" y2="-959" stroke="white" stroke-opacity="0.2" stroke-width="0.6"/>
<line x1="749.854" y1="481" x2="749.854" y2="-959" stroke="white" stroke-opacity="0.2" stroke-width="0.6"/>
<line x1="813.469" y1="481" x2="813.469" y2="-959" stroke="white" stroke-opacity="0.2" stroke-width="0.6"/>
<line x1="877.084" y1="481" x2="877.084" y2="-959" stroke="white" stroke-opacity="0.2" stroke-width="0.6"/>
<line x1="940.7" y1="481" x2="940.7" y2="-959" stroke="white" stroke-opacity="0.2" stroke-width="0.6"/>
<path d="M50 80L50 104" stroke="url(#paint0_linear_366_3644)"/>
<path d="M61 92L39 92" stroke="url(#paint1_linear_366_3644)"/>
<rect opacity="0.47" x="178.5" y="93.5" width="62" height="63" fill="white" fill-opacity="0.4" stroke="#37393A"/>
<rect opacity="0.47" x="495" y="28" width="64" height="64" fill="white" fill-opacity="0.4"/>
<rect opacity="0.47" x="687.5" y="157.5" width="62" height="64" fill="white" fill-opacity="0.4" stroke="#37393A"/>
<path d="M686.5 75L686.5 109" stroke="url(#paint2_linear_366_3644)"/>
<path d="M702 92L671 92" stroke="url(#paint3_linear_366_3644)"/>
<mask id="mask0_366_3644" style="mask-type:alpha" maskUnits="userSpaceOnUse" x="5" y="-235" width="942" height="942">
<circle cx="476" cy="236" r="471" fill="url(#paint4_radial_366_3644)"/>
</mask>
<g mask="url(#mask0_366_3644)">
</g>
</g>
<defs>
<linearGradient id="paint0_linear_366_3644" x1="50" y1="104" x2="50" y2="80" gradientUnits="userSpaceOnUse">
<stop stop-color="#C34124" stop-opacity="0"/>
<stop offset="0.50284" stop-color="#F99A85"/>
<stop offset="1" stop-color="#C34124" stop-opacity="0"/>
</linearGradient>
<linearGradient id="paint1_linear_366_3644" x1="39" y1="92" x2="61" y2="92" gradientUnits="userSpaceOnUse">
<stop stop-color="#C34124" stop-opacity="0"/>
<stop offset="0.50284" stop-color="#F99A85"/>
<stop offset="1" stop-color="#C34124" stop-opacity="0"/>
</linearGradient>
<linearGradient id="paint2_linear_366_3644" x1="686.5" y1="109" x2="686.5" y2="75" gradientUnits="userSpaceOnUse">
<stop stop-color="white" stop-opacity="0"/>
<stop offset="0.50284" stop-color="white" stop-opacity="0.7"/>
<stop offset="1" stop-color="white" stop-opacity="0"/>
</linearGradient>
<linearGradient id="paint3_linear_366_3644" x1="671" y1="92" x2="702" y2="92" gradientUnits="userSpaceOnUse">
<stop stop-color="white" stop-opacity="0"/>
<stop offset="0.50284" stop-color="white" stop-opacity="0.7"/>
<stop offset="1" stop-color="white" stop-opacity="0"/>
</linearGradient>
<radialGradient id="paint4_radial_366_3644" cx="0" cy="0" r="1" gradientUnits="userSpaceOnUse" gradientTransform="translate(502.134 81.8386) rotate(-146.092) scale(599.005)">
<stop stop-color="#D9D9D9"/>
<stop offset="1" stop-color="#D9D9D9" stop-opacity="0.67"/>
</radialGradient>
</defs>
</svg>
