<?xml version="1.0" encoding="UTF-8" standalone="no"?>
<!-- Created with Inkscape (http://www.inkscape.org/) -->

<svg
   width="1000mm"
   height="1000mm"
   viewBox="0 0 1000 1000"
   version="1.1"
   id="svg5747"
   xml:space="preserve"
   inkscape:version="1.2.2 (b0a8486, 2022-12-01)"
   sodipodi:docname="Rasengan-with-text.svg"
   xmlns:inkscape="http://www.inkscape.org/namespaces/inkscape"
   xmlns:sodipodi="http://sodipodi.sourceforge.net/DTD/sodipodi-0.dtd"
   xmlns="http://www.w3.org/2000/svg"
   xmlns:svg="http://www.w3.org/2000/svg"><sodipodi:namedview
     id="namedview5749"
     pagecolor="#ffffff"
     bordercolor="#000000"
     borderopacity="0.25"
     inkscape:showpageshadow="2"
     inkscape:pageopacity="0.0"
     inkscape:pagecheckerboard="0"
     inkscape:deskcolor="#d1d1d1"
     inkscape:document-units="mm"
     showgrid="false"
     inkscape:zoom="0.07763865"
     inkscape:cx="1397.4998"
     inkscape:cy="135.24192"
     inkscape:window-width="1366"
     inkscape:window-height="683"
     inkscape:window-x="0"
     inkscape:window-y="27"
     inkscape:window-maximized="1"
     inkscape:current-layer="layer1" /><defs
     id="defs5744"><linearGradient
       id="linearGradient5409"
       inkscape:swatch="solid"><stop
         style="stop-color:#2a7fff;stop-opacity:1;"
         offset="0"
         id="stop5407" /></linearGradient><linearGradient
       id="linearGradient3395"
       inkscape:swatch="gradient"><stop
         style="stop-color:#2a7fff;stop-opacity:1;"
         offset="0"
         id="stop3391" /><stop
         style="stop-color:#2a7fff;stop-opacity:0;"
         offset="1"
         id="stop3393" /></linearGradient></defs><g
     inkscape:label="Calque 1"
     inkscape:groupmode="layer"
     id="layer1"><rect
       style="display:none;fill:#ff0000;stroke-width:0.611165"
       id="rect1746"
       width="110.27086"
       height="246.44173"
       x="201.10553"
       y="85.215645" /><path
       id="path1500-7-3"
       style="display:inline;mix-blend-mode:normal;fill:#2a7fff;fill-opacity:1;stroke:none;stroke-width:1.47465;stroke-opacity:1"
       inkscape:label="ball-contour"
       d="m 334.94145,181.97173 c -14.5298,0.0394 -30.22546,1.8968 -44.04392,6.90572 -81.61238,29.58269 -68.26562,121.92724 -58.37212,162.51928 2.27806,9.3466 7.69649,24.6066 15.6356,43.55817 a 263.91787,263.91787 0 0 0 -24.90809,111.72989 263.91787,263.91787 0 0 0 19.49239,99.32057 c -4.45449,10.96292 -8.89889,22.48002 -13.54442,34.85238 -31.56968,84.07935 -22.25656,169.23288 31.96539,195.768 54.22199,26.53538 152.2477,-61.93435 152.2477,-61.93435 0,0 -99.69665,62.37931 -141.09418,18.34689 -16.71896,-17.78299 -10.4693,-64.71165 4.68707,-113.635 l -0.2377,-0.25832 c 1.37354,-4.06018 2.7922,-8.18022 4.27364,-12.3748 23.13788,-65.51308 54.9138,-119.86707 90.24962,-164.81889 -56.853,-89.95593 -74.3882,-167.5697 -76.20224,-176.12402 a 263.91787,263.91787 0 0 0 -0.055,0.055 c -14.82152,-73.48389 2.44034,-111.93117 36.84022,-126.62131 50.52831,-21.57791 126.13211,36.79024 126.13211,36.79024 0,0 -32.72778,-26.94782 -44.683,-33.2487 -12.7895,-6.74028 -32.07736,-15.33631 -48.02647,-18.24699 -8.4587,-1.54366 -19.05562,-2.61412 -30.3565,-2.58382 z m 366.94654,47.66991 c -25.93348,0.232 -50.61709,6.42298 -66.81435,11.49628 -10.10576,3.16542 -27.0808,10.5606 -48.10224,21.23562 A 263.91787,263.91787 0 0 0 487.17021,242.7692 263.91787,263.91787 0 0 0 305.33769,315.59179 C 318.57011,385.00817 344.70601,444.581 376.79084,495.04205 495.99591,348.15073 651.6643,305.65513 656.58832,304.34007 a 263.91787,263.91787 0 0 0 -0.1794,-0.1604 c 77.58321,-22.89389 119.3885,-8.31452 136.88774,26.29992 24.78842,49.03294 -28.58921,128.24225 -28.58921,128.24225 0,0 24.78233,-34.39644 30.29971,-46.73282 5.90242,-13.19706 13.23674,-33.00133 15.11368,-49.10479 2.27532,-19.52134 1.36356,-50.02504 -9.10542,-73.96637 -20.65032,-47.22496 -61.22491,-59.61578 -99.12765,-59.27642 z m -34.81105,84.08119 c -132.91673,34.21476 -224.2211,114.26571 -284.09182,190.83632 96.12445,144.43163 239.52042,211.05562 255.4785,218.14736 A 263.91787,263.91787 0 0 0 751.08749,506.68479 263.91787,263.91787 0 0 0 667.07694,313.72283 Z m -289.5368,197.9005 c -61.11327,80.4817 -87.38115,154.64823 -91.19187,165.99711 a 263.91787,263.91787 0 0 0 200.82194,92.98331 263.91787,263.91787 0 0 0 72.13356,-10.12686 c 14.18653,7.14952 29.27937,14.1819 45.95941,21.70416 81.87051,36.92141 167.4478,33.11403 197.42162,-19.28572 29.97374,-52.3996 -51.99867,-155.92017 -51.99867,-155.92017 0,0 55.82735,103.50689 9.21912,141.98131 -21.22992,17.52504 -77.57204,3.50462 -131.45999,-19.42004 a 263.91787,263.91787 0 0 0 0.21866,-0.15 C 506.87897,672.17456 427.91472,588.22571 377.54004,511.62319 Z" /><path
       id="path1419-6-0"
       style="display:none;fill:#501616;fill-opacity:1;stroke-width:0.660163"
       d="m 151.41797,63.570972 c -6.42283,-0.04862 -13.36922,0.701054 -19.5002,2.852304 -36.20995,12.705418 -30.73011,53.585154 -26.54144,71.573304 4.26671,18.32309 34.94985,87.74981 71.19301,125.94727 36.24315,38.1975 55.58871,49.47595 91.61045,66.16882 36.02165,16.69285 73.86628,15.39909 87.35406,-7.62701 13.48772,-23.02615 -22.27559,-69.15873 -22.27559,-69.15873 0,0 24.20635,46.00753 3.42889,62.80257 -14.3078,11.56552 -63.76302,-9.09547 -91.33853,-26.83743 -28.40447,-18.27534 -82.96121,-77.85518 -104.35845,-133.46558 -17.66079,-51.81124 -10.27184,-76.633079 8.99395,-84.627039 22.43337,-9.30836 55.58724,16.836317 55.58724,16.836317 0,0 -14.34405,-12.061263 -19.60001,-14.900828 -5.62273,-3.03764 -14.11006,-6.924771 -21.14684,-8.283914 -3.73201,-0.720819 -8.41101,-1.242056 -13.40654,-1.280054 z M 313.404,86.311101 c -11.46453,-0.01535 -22.40368,2.609256 -29.58649,4.778204 -18.01015,5.438365 -85.31551,40.531835 -121.0984,79.160915 -2.32528,2.51023 -4.53117,4.93502 -6.64704,7.29794 4.71632,8.45881 9.7325,16.8043 14.96007,24.93852 25.40019,-27.55545 61.73654,-58.32678 97.28673,-74.70784 50.56548,-20.96237 75.8129,-15.18881 85.03158,3.52196 10.73434,21.78702 -13.22007,56.55735 -13.22007,56.55735 0,0 11.1107,-15.09134 13.60567,-20.51936 2.6691,-5.80675 6.00165,-14.52749 6.90457,-21.63723 1.09457,-8.61882 0.83023,-22.10661 -3.68854,-32.73714 C 348.03868,91.995436 330.15986,86.333476 313.404,86.311101 Z M 131.56067,208.01841 c -12.80561,18.4386 -20.05515,34.89333 -28.97041,57.9147 -14.337144,37.02237 -10.608121,74.705 13.23908,86.68107 23.84728,11.97613 67.58023,-26.68448 67.58023,-26.68448 0,0 -44.35282,27.12 -62.45172,7.46791 -12.46329,-13.5329 4.9687,-64.21716 20.89702,-92.87843 1.28201,-2.30682 2.83189,-4.80585 4.5769,-7.43422 -5.18699,-8.08597 -10.15799,-16.50948 -14.8711,-25.06655 z"
       sodipodi:insensitive="true" /><rect
       style="display:none;fill:#800080;stroke-width:0.584152"
       id="rect1746-7"
       width="261.36807"
       height="94.98568"
       x="60.192574"
       y="205.02565" /></g></svg>
