<svg width="1512" height="1307" viewBox="0 0 1512 1307" fill="none" xmlns="http://www.w3.org/2000/svg">
<g opacity="0.53">
<line x1="35" y1="63.7" x2="1475" y2="63.7001" stroke="#BEBFBF" stroke-width="0.6"/>
<line x1="35" y1="130.2" x2="1475" y2="130.2" stroke="#BEBFBF" stroke-width="0.6"/>
<line x1="35" y1="196.7" x2="1475" y2="196.7" stroke="#BEBFBF" stroke-width="0.6"/>
<line x1="35" y1="263.2" x2="1475" y2="263.2" stroke="#BEBFBF" stroke-width="0.6"/>
<line x1="35" y1="329.7" x2="1475" y2="329.7" stroke="#BEBFBF" stroke-width="0.6"/>
<line x1="35" y1="396.2" x2="1475" y2="396.2" stroke="#BEBFBF" stroke-width="0.6"/>
<line x1="35" y1="462.7" x2="1475" y2="462.701" stroke="#BEBFBF" stroke-width="0.6"/>
<line x1="35" y1="529.2" x2="1475" y2="529.201" stroke="#BEBFBF" stroke-width="0.6"/>
<line x1="35" y1="595.7" x2="1475" y2="595.701" stroke="#BEBFBF" stroke-width="0.6"/>
<line x1="35" y1="662.2" x2="1475" y2="662.201" stroke="#BEBFBF" stroke-width="0.6"/>
<line x1="35" y1="728.7" x2="1475" y2="728.701" stroke="#BEBFBF" stroke-width="0.6"/>
<line x1="35" y1="795.201" x2="1475" y2="795.201" stroke="#BEBFBF" stroke-width="0.6"/>
<line x1="35" y1="861.701" x2="1475" y2="861.701" stroke="#BEBFBF" stroke-width="0.6"/>
<line x1="35" y1="928.201" x2="1475" y2="928.201" stroke="#BEBFBF" stroke-width="0.6"/>
<line x1="35" y1="994.701" x2="1475" y2="994.701" stroke="#BEBFBF" stroke-width="0.6"/>
<line x1="35" y1="1061.2" x2="1475" y2="1061.2" stroke="#BEBFBF" stroke-width="0.6"/>
<line x1="35" y1="1127.7" x2="1475" y2="1127.7" stroke="#BEBFBF" stroke-width="0.6"/>
<line x1="35" y1="1194.2" x2="1475" y2="1194.2" stroke="#BEBFBF" stroke-width="0.6"/>
<line x1="35" y1="1260.7" x2="1475" y2="1260.7" stroke="#BEBFBF" stroke-width="0.6"/>
<path d="M115 116L115 140" stroke="url(#paint0_linear_288_1631)"/>
<path d="M126 128L104 128" stroke="url(#paint1_linear_288_1631)"/>
<path d="M751.5 111L751.5 145" stroke="url(#paint2_linear_288_1631)"/>
<path d="M767 128L736 128" stroke="url(#paint3_linear_288_1631)"/>
<line x1="77.7" y1="1307" x2="77.7" y2="36" stroke="#BEBFBF" stroke-width="0.6"/>
<line x1="965.7" y1="1307" x2="965.7" y2="36" stroke="#BEBFBF" stroke-width="0.6"/>
<line x1="141.7" y1="1307" x2="141.7" y2="36" stroke="#BEBFBF" stroke-width="0.6"/>
<line x1="1029.7" y1="1307" x2="1029.7" y2="36" stroke="#BEBFBF" stroke-width="0.6"/>
<line x1="204.7" y1="1307" x2="204.7" y2="36" stroke="#BEBFBF" stroke-width="0.6"/>
<line x1="1092.7" y1="1307" x2="1092.7" y2="36" stroke="#BEBFBF" stroke-width="0.6"/>
<line x1="268.7" y1="1307" x2="268.7" y2="36" stroke="#BEBFBF" stroke-width="0.6"/>
<line x1="1156.7" y1="1307" x2="1156.7" y2="36" stroke="#BEBFBF" stroke-width="0.6"/>
<line x1="331.7" y1="1307" x2="331.7" y2="36" stroke="#BEBFBF" stroke-width="0.6"/>
<line x1="1219.7" y1="1307" x2="1219.7" y2="36" stroke="#BEBFBF" stroke-width="0.6"/>
<line x1="395.7" y1="1307" x2="395.7" y2="36" stroke="#BEBFBF" stroke-width="0.6"/>
<line x1="1283.7" y1="1307" x2="1283.7" y2="36" stroke="#BEBFBF" stroke-width="0.6"/>
<line x1="459.7" y1="1307" x2="459.7" y2="36" stroke="#BEBFBF" stroke-width="0.6"/>
<line x1="1347.7" y1="1307" x2="1347.7" y2="36" stroke="#BEBFBF" stroke-width="0.6"/>
<line x1="522.7" y1="1307" x2="522.7" y2="36" stroke="#BEBFBF" stroke-width="0.6"/>
<line x1="1410.7" y1="1307" x2="1410.7" y2="36" stroke="#BEBFBF" stroke-width="0.6"/>
<line x1="586.7" y1="1307" x2="586.7" y2="36" stroke="#BEBFBF" stroke-width="0.6"/>
<line x1="650.7" y1="1307" x2="650.7" y2="36" stroke="#BEBFBF" stroke-width="0.6"/>
<line x1="713.7" y1="1307" x2="713.7" y2="36" stroke="#BEBFBF" stroke-width="0.6"/>
<line x1="777.7" y1="1307" x2="777.7" y2="36" stroke="#BEBFBF" stroke-width="0.6"/>
<line x1="840.7" y1="1307" x2="840.7" y2="36" stroke="#BEBFBF" stroke-width="0.6"/>
<line x1="904.7" y1="1307" x2="904.7" y2="36" stroke="#BEBFBF" stroke-width="0.6"/>
<mask id="mask0_288_1631" style="mask-type:alpha" maskUnits="userSpaceOnUse" x="70" y="-39" width="942" height="942">
<circle cx="541" cy="432" r="471" fill="url(#paint4_radial_288_1631)"/>
</mask>
<g mask="url(#mask0_288_1631)">
</g>
</g>
<defs>
<linearGradient id="paint0_linear_288_1631" x1="115" y1="140" x2="115" y2="116" gradientUnits="userSpaceOnUse">
<stop stop-color="#C34124" stop-opacity="0"/>
<stop offset="0.50284" stop-color="#F99A85"/>
<stop offset="1" stop-color="#C34124" stop-opacity="0"/>
</linearGradient>
<linearGradient id="paint1_linear_288_1631" x1="104" y1="128" x2="126" y2="128" gradientUnits="userSpaceOnUse">
<stop stop-color="#C34124" stop-opacity="0"/>
<stop offset="0.50284" stop-color="#F99A85"/>
<stop offset="1" stop-color="#C34124" stop-opacity="0"/>
</linearGradient>
<linearGradient id="paint2_linear_288_1631" x1="751.5" y1="145" x2="751.5" y2="111" gradientUnits="userSpaceOnUse">
<stop stop-color="white" stop-opacity="0"/>
<stop offset="0.50284" stop-color="white" stop-opacity="0.7"/>
<stop offset="1" stop-color="white" stop-opacity="0"/>
</linearGradient>
<linearGradient id="paint3_linear_288_1631" x1="736" y1="128" x2="767" y2="128" gradientUnits="userSpaceOnUse">
<stop stop-color="white" stop-opacity="0"/>
<stop offset="0.50284" stop-color="white" stop-opacity="0.7"/>
<stop offset="1" stop-color="white" stop-opacity="0"/>
</linearGradient>
<radialGradient id="paint4_radial_288_1631" cx="0" cy="0" r="1" gradientUnits="userSpaceOnUse" gradientTransform="translate(567.134 277.839) rotate(-146.092) scale(599.005)">
<stop stop-color="#D9D9D9"/>
<stop offset="1" stop-color="#D9D9D9" stop-opacity="0.67"/>
</radialGradient>
</defs>
</svg>
