<svg width="410" height="396" viewBox="0 0 410 396" fill="none" xmlns="http://www.w3.org/2000/svg">
<path d="M67.804 264.918L67.4194 264.375C52.7962 243.701 42.8944 220.073 38.4128 195.156C34.4957 173.177 34.8744 150.647 39.5279 128.808L39.6552 128.21L39.3289 127.694C35.1574 121.093 30.9256 114.127 26.4597 106.623C11.3713 81.2678 2.91353 54.6231 2.19205 31.4707C1.47039 8.31245 8.47757 -11.1508 24.066 -22.5605L23.18 -23.7709L24.0661 -22.5605C31.7108 -28.1567 41.9676 -29.7036 53.2832 -28.7118C64.5808 -27.7217 76.7336 -24.2169 87.9591 -19.9484C98.3066 -16.0136 107.811 -11.4514 115.051 -7.67534C108.329 -9.62353 99.9123 -11.6974 90.9864 -13.0091C80.505 -14.5493 69.2339 -15.052 59.1505 -13.0094C49.0499 -10.9633 40.0215 -6.33345 34.274 2.47888L35.5304 3.29832L34.274 2.47895C31.8638 6.17475 30.7707 10.8813 30.6648 16.2187C30.5589 21.5623 31.44 27.6369 33.0751 34.1682C36.2901 47.0099 42.4699 61.8105 50.1069 76.6461L49.968 76.8676L50.3945 77.6409C51.7651 80.1256 53.1736 82.6502 54.6316 85.212C54.6317 85.2121 54.6318 85.2122 54.6319 85.2124L55.9355 84.4704C78.6524 124.415 105.698 156.087 133.967 181.222L67.804 264.918ZM67.804 264.918L67.6587 265.568C64.6981 278.813 62.9675 289.284 62.5801 295.512C61.7266 309.233 61.8291 331.295 69.1031 351.081C76.3467 370.785 90.6572 388.162 118.325 392.915C127.691 394.524 137.952 393.922 147.32 392.271C154.598 390.987 161.291 389.078 166.538 387.118C176.375 383.443 187.799 375.709 195.313 369.856C196.749 368.738 198.687 366.915 200.856 364.726C199.509 365.751 198.116 366.778 196.683 367.795C189.094 373.185 180.341 378.352 171.204 381.657C162.071 384.961 152.464 386.436 143.231 384.314C130.74 381.442 120.417 374.027 113.402 361.009C106.418 348.051 102.747 329.616 103.296 304.698L103.358 301.89L103.462 301.962C104.161 289.179 108.306 240.647 132.18 181.638L67.804 264.918ZM301.655 310.728L302.234 310.361L302.89 310.558C317.817 315.048 329.644 317.85 336.471 318.715C347.549 320.118 364.193 321.25 380.914 318.409C393.132 316.333 405.315 312.15 415.4 304.472C425.458 296.814 433.504 285.626 437.399 269.383L438.858 269.733L437.399 269.383C441.348 252.931 438.45 233.258 434.733 220.957L436.169 220.524L434.733 220.957C431.7 210.917 424.716 199.034 419.354 191.169L419.354 191.169C418.329 189.664 416.632 187.614 414.583 185.307C415.52 186.718 416.456 188.173 417.381 189.668C422.274 197.578 426.87 206.635 429.579 215.954C432.288 225.27 433.139 234.942 430.419 244.011C426.603 256.736 418.055 266.814 403.694 272.917C389.402 278.991 369.418 281.106 342.674 278.168L339.997 277.874L340.079 277.77C322.529 275.793 226.148 261.87 138.96 187.571C124.517 223.331 114.845 264.051 114.22 309.424C151.163 333.552 195.953 342.682 239.439 334.928C261.55 330.966 282.681 322.747 301.655 310.728ZM136.374 171.658C160.247 116.741 201.352 54.2408 272.133 3.47048L271.851 3.35072L274.204 1.81209C290.478 -8.82865 307.466 -18.1226 322.424 -23.6375C329.902 -26.3946 336.925 -28.2272 343.13 -28.7911C349.322 -29.3538 354.835 -28.6651 359.17 -26.2276C368.342 -21.0695 373.546 -12.3695 376.237 -2.43271C378.924 7.48675 379.143 18.755 378.275 29.3027C377.535 38.2876 376.002 46.814 374.485 53.6416C377.795 46.1786 381.747 36.4048 385.017 25.8304C388.563 14.3643 391.287 2.02365 391.553 -9.30135C391.82 -20.6443 389.619 -30.7667 383.541 -38.023C371.143 -52.8209 351.248 -58.5437 328.156 -56.3222C305.07 -54.1012 278.991 -43.9422 254.626 -27.2586C244.641 -20.4197 235.645 -14.0935 227.257 -7.80354L226.789 -7.45248L226.207 -7.51115C210.275 -9.11685 194.197 -8.50501 178.43 -5.70043C153.747 -1.25403 130.323 8.49167 109.776 22.866L108.917 21.6369L109.776 22.8661C89.461 37.0752 72.4381 55.472 59.8545 76.812C64.758 85.6128 89.8346 128.429 136.374 171.658Z" stroke="url(#paint0_linear_288_1252)" stroke-width="3"/>
<defs>
<linearGradient id="paint0_linear_288_1252" x1="74.6191" y1="310.654" x2="95.5083" y2="7.22946" gradientUnits="userSpaceOnUse">
<stop stop-color="#8EBBFF"/>
<stop offset="1" stop-color="#2A7FFF" stop-opacity="0"/>
</linearGradient>
</defs>
</svg>
