<?xml version="1.0" encoding="UTF-8" standalone="no"?>
<!-- Created with Inkscape (http://www.inkscape.org/) -->

<svg
   width="1000mm"
   height="400mm"
   viewBox="0 0 1000 400"
   version="1.1"
   id="svg5747"
   xml:space="preserve"
   inkscape:version="1.2.2 (b0a8486, 2022-12-01)"
   sodipodi:docname="Rasengan-with-text.svg"
   xmlns:inkscape="http://www.inkscape.org/namespaces/inkscape"
   xmlns:sodipodi="http://sodipodi.sourceforge.net/DTD/sodipodi-0.dtd"
   xmlns="http://www.w3.org/2000/svg"
   xmlns:svg="http://www.w3.org/2000/svg"><sodipodi:namedview
     id="namedview5749"
     pagecolor="#ffffff"
     bordercolor="#000000"
     borderopacity="0.25"
     inkscape:showpageshadow="2"
     inkscape:pageopacity="0.0"
     inkscape:pagecheckerboard="0"
     inkscape:deskcolor="#d1d1d1"
     inkscape:document-units="mm"
     showgrid="false"
     inkscape:zoom="0.07763865"
     inkscape:cx="1397.4998"
     inkscape:cy="135.24192"
     inkscape:window-width="1366"
     inkscape:window-height="683"
     inkscape:window-x="0"
     inkscape:window-y="27"
     inkscape:window-maximized="1"
     inkscape:current-layer="layer1" /><defs
     id="defs5744"><linearGradient
       id="linearGradient5409"
       inkscape:swatch="solid"><stop
         style="stop-color:#2a7fff;stop-opacity:1;"
         offset="0"
         id="stop5407" /></linearGradient><linearGradient
       id="linearGradient3395"
       inkscape:swatch="gradient"><stop
         style="stop-color:#2a7fff;stop-opacity:1;"
         offset="0"
         id="stop3391" /><stop
         style="stop-color:#2a7fff;stop-opacity:0;"
         offset="1"
         id="stop3393" /></linearGradient></defs><g
     inkscape:label="Calque 1"
     inkscape:groupmode="layer"
     id="layer1"><rect
       style="display:none;fill:#ff0000;stroke-width:0.264583"
       id="rect1746"
       width="47.738033"
       height="106.6886"
       x="83.348618"
       y="108.20568"
       transform="matrix(2.3099163,0,0,2.3099163,8.5771974,-164.73042)" /><path
       id="path1500-7-3"
       style="display:inline;mix-blend-mode:normal;fill:#2a7fff;fill-opacity:1;stroke:none;stroke-width:0.442394;stroke-opacity:1"
       inkscape:label="ball-contour"
       d="M 116.76962 101.1747 C 112.41069 101.1865 107.702 101.74374 103.55647 103.24641 C 79.072813 112.1212 83.076831 139.8245 86.044877 152.00209 C 86.728291 154.80606 88.353819 159.38405 90.735547 165.06951 A 79.175188 79.175188 0 0 0 83.263135 198.5884 A 79.175188 79.175188 0 0 0 89.11084 228.38451 C 87.774495 231.67338 86.441179 235.1285 85.047522 238.8402 C 75.57664 264.06395 78.370569 289.60995 94.637118 297.57047 C 110.90368 305.53107 140.31133 278.99021 140.31133 278.99021 C 140.31133 278.99021 110.4024 297.70396 97.983167 284.49426 C 92.967492 279.15938 94.842387 265.08081 99.389282 250.40384 L 99.317969 250.32632 C 99.73003 249.10827 100.15563 247.87226 100.60006 246.61389 C 107.54141 226.96001 117.07417 210.65385 127.67489 197.16833 C 110.61903 170.18161 105.35848 146.89753 104.81427 144.33124 A 79.175188 79.175188 0 0 0 104.79774 144.34778 C 100.35129 122.30266 105.52984 110.7685 115.84978 106.36147 C 131.00824 99.888111 153.68933 117.39852 153.68933 117.39852 C 153.68933 117.39852 143.87102 109.31419 140.28446 107.42393 C 136.44762 105.40185 130.66127 102.82305 125.87655 101.94985 C 123.33895 101.48675 120.15988 101.16561 116.76962 101.1747 z M 226.85334 115.47564 C 219.07331 115.54524 211.66825 117.40253 206.80908 118.92452 C 203.77736 119.87414 198.68486 122.09269 192.37844 125.29519 A 79.175188 79.175188 0 0 0 162.43815 119.4139 A 79.175188 79.175188 0 0 0 107.88851 141.26063 C 111.85823 162.0855 119.69898 179.95731 129.32441 195.09559 C 165.08585 151.02829 211.78627 138.27964 213.26347 137.88512 A 79.175188 79.175188 0 0 0 213.20972 137.83706 C 236.48463 130.96891 249.02619 135.34271 254.27595 145.72702 C 261.71246 160.43687 245.69921 184.19961 245.69921 184.19961 C 245.69921 184.19961 253.13389 173.8807 254.7891 170.17979 C 256.55982 166.22068 258.76011 160.27942 259.32319 155.44839 C 260.00579 149.592 259.73226 140.44091 256.59157 133.25853 C 250.39649 119.09107 238.22414 115.37383 226.85334 115.47564 z M 216.41005 140.69994 C 176.53512 150.96435 149.14387 174.97958 131.18269 197.95071 C 160.01996 241.28011 203.03866 261.26726 207.82607 263.39478 A 79.175188 79.175188 0 0 0 241.61316 198.5884 A 79.175188 79.175188 0 0 0 216.41005 140.69994 z M 129.5492 200.06996 C 111.21526 224.21442 103.33491 246.46433 102.1917 249.86899 A 79.175188 79.175188 0 0 0 162.43815 277.76392 A 79.175188 79.175188 0 0 0 184.07817 274.72587 C 188.33412 276.87072 192.86196 278.98043 197.86596 281.2371 C 222.42706 292.3135 248.10019 291.17129 257.09232 275.4514 C 266.08442 259.73155 241.49275 228.67545 241.49275 228.67545 C 241.49275 228.67545 258.24092 259.72745 244.25848 271.26975 C 237.88952 276.52725 220.98692 272.32113 204.82057 265.44375 A 79.175188 79.175188 0 0 0 204.8862 265.39879 C 168.35079 248.23527 144.66157 223.05067 129.5492 200.06996 z " /><path
       id="path1419-6-0"
       style="display:none;fill:#501616;fill-opacity:1;stroke-width:0.660163"
       d="m 151.41797,63.570972 c -6.42283,-0.04862 -13.36922,0.701054 -19.5002,2.852304 -36.20995,12.705418 -30.73011,53.585154 -26.54144,71.573304 4.26671,18.32309 34.94985,87.74981 71.19301,125.94727 36.24315,38.1975 55.58871,49.47595 91.61045,66.16882 36.02165,16.69285 73.86628,15.39909 87.35406,-7.62701 13.48772,-23.02615 -22.27559,-69.15873 -22.27559,-69.15873 0,0 24.20635,46.00753 3.42889,62.80257 -14.3078,11.56552 -63.76302,-9.09547 -91.33853,-26.83743 -28.40447,-18.27534 -82.96121,-77.85518 -104.35845,-133.46558 -17.66079,-51.81124 -10.27184,-76.633079 8.99395,-84.627039 22.43337,-9.30836 55.58724,16.836317 55.58724,16.836317 0,0 -14.34405,-12.061263 -19.60001,-14.900828 -5.62273,-3.03764 -14.11006,-6.924771 -21.14684,-8.283914 -3.73201,-0.720819 -8.41101,-1.242056 -13.40654,-1.280054 z M 313.404,86.311101 c -11.46453,-0.01535 -22.40368,2.609256 -29.58649,4.778204 -18.01015,5.438365 -85.31551,40.531835 -121.0984,79.160915 -2.32528,2.51023 -4.53117,4.93502 -6.64704,7.29794 4.71632,8.45881 9.7325,16.8043 14.96007,24.93852 25.40019,-27.55545 61.73654,-58.32678 97.28673,-74.70784 50.56548,-20.96237 75.8129,-15.18881 85.03158,3.52196 10.73434,21.78702 -13.22007,56.55735 -13.22007,56.55735 0,0 11.1107,-15.09134 13.60567,-20.51936 2.6691,-5.80675 6.00165,-14.52749 6.90457,-21.63723 1.09457,-8.61882 0.83023,-22.10661 -3.68854,-32.73714 C 348.03868,91.995436 330.15986,86.333476 313.404,86.311101 Z M 131.56067,208.01841 c -12.80561,18.4386 -20.05515,34.89333 -28.97041,57.9147 -14.337144,37.02237 -10.608121,74.705 13.23908,86.68107 23.84728,11.97613 67.58023,-26.68448 67.58023,-26.68448 0,0 -44.35282,27.12 -62.45172,7.46791 -12.46329,-13.5329 4.9687,-64.21716 20.89702,-92.87843 1.28201,-2.30682 2.83189,-4.80585 4.5769,-7.43422 -5.18699,-8.08597 -10.15799,-16.50948 -14.8711,-25.06655 z"
       sodipodi:insensitive="true" /><rect
       style="display:none;fill:#800080;stroke-width:0.252889"
       id="rect1746-7"
       width="113.15045"
       height="41.120831"
       x="22.345129"
       y="160.07336"
       transform="matrix(2.3099163,0,0,2.3099163,8.5771974,-164.73042)" /><path
       id="text7892"
       style="font-style:normal;font-variant:normal;font-weight:normal;font-stretch:normal;font-size:105.833px;font-family:Urbanist;-inkscape-font-specification:'Urbanist, Normal';font-variant-ligatures:normal;font-variant-caps:normal;font-variant-numeric:normal;font-variant-east-asian:normal;fill:#2a7fff;fill-opacity:1;stroke:none;stroke-width:0.264583"
       d="m 459.42829,166.15938 c -4.97415,0 -9.61311,0.97015 -13.91698,2.91042 -4.2686,1.94027 -7.70821,4.65688 -10.31875,8.14937 -2.61055,3.45721 -3.91553,7.49624 -3.91553,12.11761 0,4.83303 1.21679,8.81976 3.65094,11.95947 2.46944,3.13971 5.82086,5.60918 10.05417,7.40834 4.26859,1.76388 9.08395,3.03348 14.44615,3.80958 1.97555,0.28222 3.89841,0.7232 5.76812,1.32292 1.90499,0.56444 3.45712,1.34077 4.65656,2.32854 1.23472,0.9525 1.85209,2.1698 1.85209,3.65146 0,1.44638 -0.58199,2.71598 -1.74615,3.80958 -1.16416,1.09361 -2.68143,1.95813 -4.55114,2.59313 -1.86972,0.59972 -3.86282,0.89968 -5.97948,0.89968 -2.29305,0 -4.37435,-0.29996 -6.24407,-0.89968 -1.86971,-0.635 -3.42184,-1.42876 -4.65656,-2.38125 -1.19944,-0.9525 -1.97576,-1.94008 -2.32854,-2.96313 l -14.92209,5.50302 c 1.27,3.45721 3.33335,6.43842 6.19084,8.94313 2.85749,2.46943 6.19147,4.37434 10.00146,5.71489 3.80998,1.30528 7.7962,1.95802 11.95896,1.95802 5.0447,0 9.70161,-0.97014 13.9702,-2.91041 4.2686,-1.94027 7.69026,-4.63894 10.26553,-8.09615 2.61054,-3.49249 3.91604,-7.54946 3.91604,-12.17083 0,-4.55082 -1.28755,-8.41397 -3.86282,-11.58896 -2.57526,-3.17499 -5.99744,-5.7147 -10.26604,-7.61969 -4.26859,-1.90499 -8.94293,-3.22792 -14.02291,-3.96875 -2.22249,-0.3175 -4.26841,-0.67028 -6.13813,-1.05833 -1.83444,-0.38806 -3.31632,-1.0408 -4.44521,-1.95802 -1.12888,-0.9525 -1.69292,-2.38157 -1.69292,-4.28656 0,-1.37583 0.59942,-2.61056 1.79886,-3.70417 1.19944,-1.09361 2.73414,-1.95761 4.60385,-2.59261 1.86972,-0.63499 3.82745,-0.93496 5.87355,-0.89968 2.29304,0 4.37435,0.29996 6.24406,0.89968 1.86972,0.59972 3.40441,1.37553 4.60385,2.32803 1.23472,0.91722 2.02848,1.88736 2.38125,2.91041 l 14.92261,-5.39708 c -1.23472,-3.49249 -3.28064,-6.49112 -6.13813,-8.99584 -2.85749,-2.50471 -6.2089,-4.40962 -10.05417,-5.71489 -3.80998,-1.34055 -7.79671,-2.01125 -11.95947,-2.01125 z m 206.05667,0.10594 c -4.69192,0 -9.24269,0.91733 -13.6524,2.75177 -4.37442,1.83443 -8.30782,4.46234 -11.80031,7.88427 -3.45721,3.38665 -6.20869,7.40877 -8.25479,12.06541 -2.01083,4.65665 -3.01636,9.82478 -3.01636,15.50448 0,5.25637 0.91734,10.21273 2.75177,14.86938 1.83444,4.65665 4.3921,8.76644 7.67292,12.32948 3.28082,3.52776 7.12603,6.2972 11.53573,8.30802 4.44498,2.01083 9.26034,3.01635 14.44615,3.01635 5.25636,0 10.14248,-1.05834 14.65802,-3.175 4.51553,-2.11665 8.44894,-5.04504 11.80031,-8.78447 3.35138,-3.73943 5.90904,-8.04305 7.67292,-12.91136 1.79916,-4.90359 2.55753,-10.12454 2.27531,-15.66313 h -28.68094 v 13.75782 h 9.94875 c -1.09361,1.86971 -2.31091,3.49261 -3.65146,4.86844 -1.34055,1.37582 -2.7691,2.50493 -4.28604,3.38687 -1.51694,0.88194 -3.08702,1.55212 -4.70979,2.01073 -1.58749,0.42333 -3.19244,0.6351 -4.81521,0.6351 -2.85749,0 -5.53872,-0.56455 -8.04344,-1.69343 -2.50471,-1.16416 -4.70959,-2.75168 -6.61458,-4.7625 -1.90499,-2.04611 -3.40431,-4.42738 -4.49792,-7.14375 -1.05832,-2.71638 -1.5875,-5.62682 -1.5875,-8.73125 0,-3.38666 0.56456,-6.47349 1.69344,-9.26042 1.16416,-2.78693 2.71629,-5.18563 4.65656,-7.19646 1.94027,-2.01082 4.14515,-3.56296 6.61459,-4.65656 2.46943,-1.09361 5.02709,-1.64073 7.67291,-1.64073 2.61055,0 5.18564,0.58199 7.72563,1.74615 2.57527,1.12888 4.93911,2.91073 7.09104,5.34489 l 14.18156,-7.62021 c -4.02165,-5.3622 -8.53703,-9.24278 -13.54646,-11.64166 -5.00942,-2.39888 -10.08987,-3.59823 -15.24041,-3.59823 z m -370.20324,1.2702 v 74.08282 h 15.875 v -28.78636 h 5.50354 l 16.72146,28.78636 h 18.30896 l -17.56792,-30.26792 c 2.64582,-1.26999 4.93889,-2.9457 6.87916,-5.02708 1.97555,-2.11666 3.4923,-4.53331 4.55063,-7.24969 1.05833,-2.75166 1.5875,-5.71491 1.5875,-8.8899 0,-4.12748 -0.97015,-7.90244 -2.91042,-11.32437 -1.90499,-3.45721 -4.49803,-6.20869 -7.77885,-8.25479 -3.28082,-2.04611 -6.94963,-3.06907 -11.00656,-3.06907 z m 88.05302,0 -26.88156,74.08282 h 16.82739 l 4.23334,-11.64167 h 29.52739 l 4.23334,11.64167 h 16.82739 l -26.88156,-74.08282 z m 115.88698,0 v 74.08282 h 47.20126 v -15.875 h -31.32626 v -15.875 h 24.1298 v -15.87448 h -24.1298 v -10.58334 h 31.32626 v -15.875 z m 58.84292,0 v 74.08282 h 15.875 v -45.4024 l 27.09344,45.4024 h 17.14469 v -74.08282 h -15.875 v 45.4024 l -27.09292,-45.4024 z m 172.56053,0 -26.88156,74.08282 H 720.571 l 4.23334,-11.64167 h 29.52739 l 4.23334,11.64167 h 16.82739 L 748.5109,167.53552 Z m 53.23396,0 v 74.08282 h 15.875 v -45.4024 l 27.09344,45.4024 h 17.14469 v -74.08282 h -15.875 v 45.4024 l -27.09292,-45.4024 z m -472.70241,13.54646 h 12.3827 c 1.41111,0 2.69866,0.37022 3.86282,1.11105 1.16416,0.70555 2.09893,1.65826 2.80448,2.8577 0.70555,1.19944 1.05833,2.52237 1.05833,3.96875 0,1.44639 -0.35278,2.76931 -1.05833,3.96875 -0.70555,1.19944 -1.64032,2.16959 -2.80448,2.91042 -1.16416,0.70555 -2.45171,1.05833 -3.86282,1.05833 h -12.3827 z m 81.06792,8.46667 8.99583,24.55302 h -17.88573 z m 347.29043,0 8.99583,24.55302 h -17.88573 z m 170.67847,22.85132 c -1.98966,0 -3.84555,0.38816 -5.5671,1.16427 -1.70745,0.77611 -3.08318,1.86275 -4.1274,3.25975 -1.04422,1.38288 -1.56631,2.99818 -1.56631,4.84673 0,1.93322 0.48671,3.5278 1.46037,4.78369 0.98778,1.25588 2.32865,2.24398 4.02198,2.96364 1.70744,0.70556 3.63357,1.2135 5.77846,1.52394 0.79022,0.11289 1.55895,0.28928 2.30683,0.52917 0.762,0.22577 1.38316,0.53609 1.86294,0.93121 0.49389,0.38099 0.74052,0.86771 0.74052,1.46037 0,0.57856 -0.23248,1.08701 -0.69815,1.52446 -0.46566,0.43744 -1.07267,0.78314 -1.82056,1.03714 -0.74788,0.23989 -1.54492,0.35967 -2.39158,0.35967 -0.91722,0 -1.75015,-0.11978 -2.49804,-0.35967 -0.74789,-0.254 -1.36853,-0.57191 -1.86242,-0.95291 -0.47978,-0.381 -0.7901,-0.77572 -0.93121,-1.18494 l -5.96914,2.2009 c 0.508,1.38288 1.33333,2.57567 2.47633,3.57756 1.143,0.98777 2.47679,1.74942 4.00079,2.28565 1.524,0.52211 3.11858,0.78341 4.78369,0.78341 2.01788,0 3.88033,-0.38816 5.58777,-1.16427 1.70744,-0.77611 3.0761,-1.85568 4.10621,-3.23856 1.04422,-1.397 1.56631,-3.01989 1.56631,-4.86844 0,-1.82033 -0.51501,-3.36538 -1.54512,-4.63537 -1.03011,-1.27 -2.39877,-2.28588 -4.10621,-3.04788 -1.70744,-0.762 -3.57697,-1.29117 -5.60896,-1.5875 -0.889,-0.127 -1.70778,-0.26801 -2.45567,-0.42323 -0.73377,-0.15522 -1.32611,-0.41653 -1.77766,-0.78342 -0.45156,-0.38099 -0.67748,-0.95262 -0.67748,-1.71462 0,-0.55033 0.24007,-1.04412 0.71985,-1.48156 0.47978,-0.43745 1.09334,-0.78315 1.84123,-1.03715 0.74789,-0.254 1.53129,-0.37378 2.34973,-0.35967 0.91722,0 1.74963,0.11978 2.49752,0.35967 0.74789,0.23989 1.36145,0.55021 1.84123,0.93121 0.49389,0.36689 0.8118,0.75505 0.95292,1.16427 l 5.96862,-2.15904 c -0.49389,-1.397 -1.31215,-2.59634 -2.45514,-3.59823 -1.143,-1.00189 -2.48336,-1.76406 -4.02146,-2.28617 -1.524,-0.53622 -3.11858,-0.80408 -4.78369,-0.80408 z m -22.26738,0.55035 v 20.19309 c 0,0.66322 -0.16931,1.26971 -0.50798,1.82004 -0.32455,0.55033 -0.76224,0.9951 -1.31258,1.33377 -0.55033,0.32455 -1.15682,0.48679 -1.82004,0.48679 -0.55033,0 -1.01633,-0.092 -1.39733,-0.27544 -0.381,-0.19755 -0.69132,-0.38758 -0.93121,-0.57102 l -4.06384,4.86792 c 0.889,0.762 1.88365,1.3407 2.98432,1.73581 1.11477,0.39511 2.25095,0.59273 3.40806,0.59273 1.83444,0 3.50634,-0.45185 5.01623,-1.35496 1.50989,-0.90311 2.71631,-2.10953 3.61942,-3.61941 0.90311,-1.50989 1.35495,-3.18179 1.35495,-5.01623 v -20.19309 z m -25.43307,14.16916 c -2.22249,0 -4.10997,0.77581 -5.66219,2.32803 -1.51693,1.55221 -2.27531,3.42226 -2.27531,5.60947 0,2.22249 0.75838,4.10946 2.27531,5.66167 1.55222,1.51694 3.4397,2.27583 5.66219,2.27583 2.18721,0 4.05674,-0.75889 5.60896,-2.27583 1.55222,-1.55221 2.32854,-3.43918 2.32854,-5.66167 0,-2.18721 -0.77632,-4.05726 -2.32854,-5.60947 -1.55222,-1.55222 -3.42175,-2.32803 -5.60896,-2.32803 z" /></g></svg>
